<svg xmlns="http://www.w3.org/2000/svg" xmlns:xlink="http://www.w3.org/1999/xlink" width="500" zoomAndPan="magnify" viewBox="0 0 375 374.999991" height="500" preserveAspectRatio="xMidYMid meet" version="1.2"><defs><clipPath id="3c3a006793"><path d="M 49.15625 49.15625 L 325.84375 49.15625 L 325.84375 325.84375 L 49.15625 325.84375 Z M 49.15625 49.15625 "/></clipPath><clipPath id="50df500a00"><path d="M 187.5 49.15625 C 111.09375 49.15625 49.15625 111.09375 49.15625 187.5 C 49.15625 263.90625 111.09375 325.84375 187.5 325.84375 C 263.90625 325.84375 325.84375 263.90625 325.84375 187.5 C 325.84375 111.09375 263.90625 49.15625 187.5 49.15625 Z M 187.5 49.15625 "/></clipPath><clipPath id="3c7e45eb06"><path d="M 0.15625 0.15625 L 276.84375 0.15625 L 276.84375 276.84375 L 0.15625 276.84375 Z M 0.15625 0.15625 "/></clipPath><clipPath id="53d8455bd8"><path d="M 138.5 0.15625 C 62.09375 0.15625 0.15625 62.09375 0.15625 138.5 C 0.15625 214.90625 62.09375 276.84375 138.5 276.84375 C 214.90625 276.84375 276.84375 214.90625 276.84375 138.5 C 276.84375 62.09375 214.90625 0.15625 138.5 0.15625 Z M 138.5 0.15625 "/></clipPath><clipPath id="f6d62187a8"><rect x="0" width="277" y="0" height="277"/></clipPath><clipPath id="d17de6d84f"><path d="M 64.40625 64.40625 L 310.40625 64.40625 L 310.40625 310.40625 L 64.40625 310.40625 Z M 64.40625 64.40625 "/></clipPath><clipPath id="cd1163aee9"><path d="M 187.496094 64.40625 C 119.515625 64.40625 64.40625 119.515625 64.40625 187.496094 C 64.40625 255.472656 119.515625 310.582031 187.496094 310.582031 C 255.476562 310.582031 310.582031 255.472656 310.582031 187.496094 C 310.582031 119.515625 255.476562 64.40625 187.496094 64.40625 Z M 187.496094 64.40625 "/></clipPath><clipPath id="27e305d898"><path d="M 52.296875 52.492188 L 322.296875 52.492188 L 322.296875 322.492188 L 52.296875 322.492188 Z M 52.296875 52.492188 "/></clipPath><clipPath id="48e19cc3d9"><path d="M 187.34375 52.492188 C 112.757812 52.492188 52.296875 112.953125 52.296875 187.539062 C 52.296875 262.121094 112.757812 322.585938 187.34375 322.585938 C 261.929688 322.585938 322.390625 262.121094 322.390625 187.539062 C 322.390625 112.953125 261.929688 52.492188 187.34375 52.492188 Z M 187.34375 52.492188 "/></clipPath><clipPath id="24dbd1beee"><path d="M 57.957031 187.542969 L 61.171875 187.542969 L 61.171875 190.757812 L 57.957031 190.757812 Z M 57.957031 187.542969 "/></clipPath><clipPath id="08cf65a1bf"><path d="M 59.566406 187.542969 C 58.675781 187.542969 57.957031 188.261719 57.957031 189.148438 C 57.957031 190.039062 58.675781 190.757812 59.566406 190.757812 C 60.453125 190.757812 61.171875 190.039062 61.171875 189.148438 C 61.171875 188.261719 60.453125 187.542969 59.566406 187.542969 Z M 59.566406 187.542969 "/></clipPath><clipPath id="540dac437f"><path d="M 0.957031 0.542969 L 4.171875 0.542969 L 4.171875 3.757812 L 0.957031 3.757812 Z M 0.957031 0.542969 "/></clipPath><clipPath id="706b77ac94"><path d="M 2.566406 0.542969 C 1.675781 0.542969 0.957031 1.261719 0.957031 2.148438 C 0.957031 3.039062 1.675781 3.757812 2.566406 3.757812 C 3.453125 3.757812 4.171875 3.039062 4.171875 2.148438 C 4.171875 1.261719 3.453125 0.542969 2.566406 0.542969 Z M 2.566406 0.542969 "/></clipPath><clipPath id="2f4a89eea1"><rect x="0" width="5" y="0" height="4"/></clipPath><clipPath id="671ade77e0"><path d="M 313.59375 187.5 L 316.597656 187.5 L 316.597656 190.503906 L 313.59375 190.503906 Z M 313.59375 187.5 "/></clipPath><clipPath id="84d5ae964a"><path d="M 315.097656 187.5 C 314.265625 187.5 313.59375 188.171875 313.59375 189.003906 C 313.59375 189.832031 314.265625 190.503906 315.097656 190.503906 C 315.925781 190.503906 316.597656 189.832031 316.597656 189.003906 C 316.597656 188.171875 315.925781 187.5 315.097656 187.5 Z M 315.097656 187.5 "/></clipPath><clipPath id="d5810b7e62"><path d="M 0.59375 0.5 L 3.597656 0.5 L 3.597656 3.503906 L 0.59375 3.503906 Z M 0.59375 0.5 "/></clipPath><clipPath id="2d7b73cb83"><path d="M 2.097656 0.5 C 1.265625 0.5 0.59375 1.171875 0.59375 2.003906 C 0.59375 2.832031 1.265625 3.503906 2.097656 3.503906 C 2.925781 3.503906 3.597656 2.832031 3.597656 2.003906 C 3.597656 1.171875 2.925781 0.5 2.097656 0.5 Z M 2.097656 0.5 "/></clipPath><clipPath id="bc96a60577"><rect x="0" width="4" y="0" height="4"/></clipPath><clipPath id="67621e366a"><rect x="0" width="215" y="0" height="88"/></clipPath><clipPath id="f4ae49a46a"><path d="M 96.132812 96.4375 L 278.253906 96.4375 L 278.253906 279 L 96.132812 279 Z M 96.132812 96.4375 "/></clipPath><clipPath id="dc11dccd1c"><path d="M 187.195312 96.4375 C 136.902344 96.4375 96.132812 137.207031 96.132812 187.5 C 96.132812 237.792969 136.902344 278.5625 187.195312 278.5625 C 237.484375 278.5625 278.253906 237.792969 278.253906 187.5 C 278.253906 137.207031 237.484375 96.4375 187.195312 96.4375 Z M 187.195312 96.4375 "/></clipPath><clipPath id="9bf95ea4ca"><path d="M 0.132812 0.4375 L 182.253906 0.4375 L 182.253906 182.640625 L 0.132812 182.640625 Z M 0.132812 0.4375 "/></clipPath><clipPath id="6b8b70d89c"><path d="M 91.195312 0.4375 C 40.902344 0.4375 0.132812 41.207031 0.132812 91.5 C 0.132812 141.792969 40.902344 182.5625 91.195312 182.5625 C 141.484375 182.5625 182.253906 141.792969 182.253906 91.5 C 182.253906 41.207031 141.484375 0.4375 91.195312 0.4375 Z M 91.195312 0.4375 "/></clipPath><clipPath id="6b7f3d12f8"><rect x="0" width="183" y="0" height="183"/></clipPath><clipPath id="9fb2806c45"><path d="M 146 98.617188 L 275.902344 98.617188 L 275.902344 276.367188 L 146 276.367188 Z M 146 98.617188 "/></clipPath><clipPath id="a95f02d1ae"><path d="M 98.152344 140 L 241 140 L 241 263 L 98.152344 263 Z M 98.152344 140 "/></clipPath></defs><g id="edd057530b"><g clip-rule="nonzero" clip-path="url(#3c3a006793)"><g clip-rule="nonzero" clip-path="url(#50df500a00)"><g transform="matrix(1,0,0,1,49,49)"><g clip-path="url(#f6d62187a8)"><g clip-rule="nonzero" clip-path="url(#3c7e45eb06)"><g clip-rule="nonzero" clip-path="url(#53d8455bd8)"><path style=" stroke:none;fill-rule:nonzero;fill:#f1f1f1;fill-opacity:1;" d="M 0.15625 0.15625 L 276.84375 0.15625 L 276.84375 276.84375 L 0.15625 276.84375 Z M 0.15625 0.15625 "/></g></g></g></g></g></g><g clip-rule="nonzero" clip-path="url(#d17de6d84f)"><g clip-rule="nonzero" clip-path="url(#cd1163aee9)"><path style="fill:none;stroke-width:6;stroke-linecap:butt;stroke-linejoin:miter;stroke:#000000;stroke-opacity:1;stroke-miterlimit:4;" d="M 164.118562 -0.00120556 C 73.477931 -0.00120556 -0.00124036 73.477966 -0.00124036 164.118597 C -0.00124036 254.75402 73.477931 328.233191 164.118562 328.233191 C 254.759193 328.233191 328.233156 254.75402 328.233156 164.118597 C 328.233156 73.477966 254.759193 -0.00120556 164.118562 -0.00120556 Z M 164.118562 -0.00120556 " transform="matrix(0.75,0,0,0.75,64.40718,64.407154)"/></g></g><g clip-rule="nonzero" clip-path="url(#27e305d898)"><g clip-rule="nonzero" clip-path="url(#48e19cc3d9)"><path style="fill:none;stroke-width:6;stroke-linecap:butt;stroke-linejoin:miter;stroke:#000000;stroke-opacity:1;stroke-miterlimit:4;" d="M 180.06253 0.000877529 C 80.614613 0.000877529 0.0000292455 80.615461 0.0000292455 180.063378 C 0.0000292455 279.506086 80.614613 360.125878 180.06253 360.125878 C 279.510446 360.125878 360.12503 279.506086 360.12503 180.063378 C 360.12503 80.615461 279.510446 0.000877529 180.06253 0.000877529 Z M 180.06253 0.000877529 " transform="matrix(0.75,0,0,0.75,52.296853,52.491529)"/></g></g><g clip-rule="nonzero" clip-path="url(#24dbd1beee)"><g clip-rule="nonzero" clip-path="url(#08cf65a1bf)"><g transform="matrix(1,0,0,1,57,187)"><g clip-path="url(#2f4a89eea1)"><g clip-rule="nonzero" clip-path="url(#540dac437f)"><g clip-rule="nonzero" clip-path="url(#706b77ac94)"><path style=" stroke:none;fill-rule:nonzero;fill:#000000;fill-opacity:1;" d="M 0.957031 0.542969 L 4.171875 0.542969 L 4.171875 3.757812 L 0.957031 3.757812 Z M 0.957031 0.542969 "/></g></g></g></g></g></g><g clip-rule="nonzero" clip-path="url(#671ade77e0)"><g clip-rule="nonzero" clip-path="url(#84d5ae964a)"><g transform="matrix(1,0,0,1,313,187)"><g clip-path="url(#bc96a60577)"><g clip-rule="nonzero" clip-path="url(#d5810b7e62)"><g clip-rule="nonzero" clip-path="url(#2d7b73cb83)"><path style=" stroke:none;fill-rule:nonzero;fill:#000000;fill-opacity:1;" d="M 0.59375 0.5 L 3.597656 0.5 L 3.597656 3.503906 L 0.59375 3.503906 Z M 0.59375 0.5 "/></g></g></g></g></g></g><g style="fill:#000000;fill-opacity:1;"><g transform="translate(101.176684, 138.296383)"><path style="stroke:none" d="M -7.328125 -6.453125 L -5.234375 -9.765625 C -4.691406 -10.628906 -4.039062 -11.28125 -3.28125 -11.71875 C -2.53125 -12.15625 -1.726562 -12.363281 -0.875 -12.34375 C -0.03125 -12.332031 0.785156 -12.078125 1.578125 -11.578125 C 2.367188 -11.078125 2.957031 -10.445312 3.34375 -9.6875 C 3.738281 -8.925781 3.898438 -8.109375 3.828125 -7.234375 C 3.765625 -6.367188 3.460938 -5.503906 2.921875 -4.640625 L 0.828125 -1.328125 Z M 2.15625 -5.078125 C 2.601562 -5.785156 2.851562 -6.492188 2.90625 -7.203125 C 2.957031 -7.921875 2.820312 -8.582031 2.5 -9.1875 C 2.1875 -9.789062 1.703125 -10.300781 1.046875 -10.71875 C 0.398438 -11.125 -0.257812 -11.335938 -0.9375 -11.359375 C -1.625 -11.378906 -2.28125 -11.210938 -2.90625 -10.859375 C -3.53125 -10.503906 -4.066406 -9.972656 -4.515625 -9.265625 L -6.03125 -6.84375 L 0.640625 -2.65625 Z M 2.15625 -5.078125 "/></g></g><g style="fill:#000000;fill-opacity:1;"><g transform="translate(110.644526, 124.223842)"><path style="stroke:none" d="M 3.140625 -7.40625 L -0.4375 -3.390625 L 0.734375 -0.8125 L 0.015625 -0.015625 L -4.25 -9.703125 L -3.578125 -10.46875 L 6.53125 -7.34375 L 5.828125 -6.546875 Z M 2.28125 -7.65625 L -3.125 -9.359375 L -0.796875 -4.203125 Z M 2.28125 -7.65625 "/></g></g><g style="fill:#000000;fill-opacity:1;"><g transform="translate(121.234489, 112.937672)"><path style="stroke:none" d="M 1.453125 -13.53125 L 7.484375 -6.03125 L 6.828125 -5.5 L -2.890625 -7.6875 L 2.015625 -1.609375 L 1.21875 -0.984375 L -4.8125 -8.484375 L -4.15625 -9.015625 L 5.5625 -6.8125 L 0.671875 -12.90625 Z M 1.453125 -13.53125 "/></g></g><g style="fill:#000000;fill-opacity:1;"><g transform="translate(134.787413, 102.838897)"><path style="stroke:none" d="M -3.609375 -9.046875 L -2.75 -9.578125 L 2.203125 -1.328125 L 1.34375 -0.796875 Z M -3.609375 -9.046875 "/></g></g><g style="fill:#000000;fill-opacity:1;"><g transform="translate(143.41386, 97.903748)"><path style="stroke:none" d="M 7.328125 -4.15625 L 7.671875 -3.359375 L 1.4375 -0.625 L -2.421875 -9.4375 L 3.625 -12.09375 L 3.96875 -11.296875 L -1.15625 -9.046875 L 0.21875 -5.90625 L 4.78125 -7.90625 L 5.140625 -7.109375 L 0.578125 -5.109375 L 2.015625 -1.828125 Z M 7.328125 -4.15625 "/></g></g><g style="fill:#000000;fill-opacity:1;"><g transform="translate(157.230917, 92.356193)"><path style="stroke:none" d="M -1.03125 -9.6875 L -0.046875 -9.953125 L 2.25 -1.515625 L 7.453125 -2.9375 L 7.6875 -2.09375 L 1.5 -0.40625 Z M -1.03125 -9.6875 "/></g></g><g style="fill:#000000;fill-opacity:1;"><g transform="translate(170.76947, 89.175907)"><path style="stroke:none" d=""/></g></g><g style="fill:#000000;fill-opacity:1;"><g transform="translate(180.043303, 87.938019)"><path style="stroke:none" d="M 5.78125 0.03125 C 4.820312 0.03125 3.953125 -0.175781 3.171875 -0.59375 C 2.390625 -1.007812 1.78125 -1.582031 1.34375 -2.3125 C 0.90625 -3.050781 0.679688 -3.882812 0.671875 -4.8125 C 0.660156 -5.738281 0.867188 -6.570312 1.296875 -7.3125 C 1.722656 -8.0625 2.320312 -8.65625 3.09375 -9.09375 C 3.863281 -9.53125 4.726562 -9.75 5.6875 -9.75 C 6.632812 -9.757812 7.492188 -9.554688 8.265625 -9.140625 C 9.035156 -8.734375 9.644531 -8.15625 10.09375 -7.40625 C 10.539062 -6.664062 10.769531 -5.832031 10.78125 -4.90625 C 10.789062 -3.976562 10.578125 -3.140625 10.140625 -2.390625 C 9.703125 -1.648438 9.101562 -1.0625 8.34375 -0.625 C 7.582031 -0.195312 6.726562 0.0195312 5.78125 0.03125 Z M 5.78125 -0.875 C 6.539062 -0.882812 7.222656 -1.0625 7.828125 -1.40625 C 8.441406 -1.757812 8.914062 -2.242188 9.25 -2.859375 C 9.59375 -3.472656 9.757812 -4.15625 9.75 -4.90625 C 9.75 -5.65625 9.570312 -6.332031 9.21875 -6.9375 C 8.863281 -7.539062 8.378906 -8.007812 7.765625 -8.34375 C 7.148438 -8.6875 6.460938 -8.851562 5.703125 -8.84375 C 4.941406 -8.84375 4.25 -8.664062 3.625 -8.3125 C 3.007812 -7.96875 2.53125 -7.488281 2.1875 -6.875 C 1.84375 -6.257812 1.671875 -5.578125 1.671875 -4.828125 C 1.679688 -4.078125 1.863281 -3.398438 2.21875 -2.796875 C 2.582031 -2.191406 3.078125 -1.71875 3.703125 -1.375 C 4.328125 -1.039062 5.019531 -0.875 5.78125 -0.875 Z M 5.78125 -0.875 "/></g></g><g style="fill:#000000;fill-opacity:1;"><g transform="translate(197.209165, 88.365674)"><path style="stroke:none" d="M 2.984375 -9.28125 L 3.984375 -9.125 L 2.671875 -0.46875 L 8 0.328125 L 7.875 1.1875 L 1.546875 0.234375 Z M 2.984375 -9.28125 "/></g></g><g style="fill:#000000;fill-opacity:1;"><g transform="translate(210.870752, 90.904305)"><path style="stroke:none" d="M 4.078125 -8.84375 L 5.0625 -8.578125 L 2.484375 0.6875 L 1.5 0.421875 Z M 4.078125 -8.84375 "/></g></g><g style="fill:#000000;fill-opacity:1;"><g transform="translate(220.380612, 93.763495)"><path style="stroke:none" d="M 12.5625 -5.125 L 4.890625 2.078125 L 3.953125 1.6875 L 3.8125 -8.84375 L 4.8125 -8.40625 L 4.9375 0.71875 L 11.625 -5.515625 Z M 12.5625 -5.125 "/></g></g><g style="fill:#000000;fill-opacity:1;"><g transform="translate(234.235771, 100.121547)"><path style="stroke:none" d="M 7.828125 1.859375 L 3.265625 -1 L 0.921875 0.578125 L 0.03125 0.015625 L 8.859375 -5.8125 L 9.71875 -5.265625 L 8.328125 5.21875 L 7.421875 4.65625 Z M 7.921875 0.96875 L 8.71875 -4.640625 L 4.015625 -1.484375 Z M 7.921875 0.96875 "/></g></g><g style="fill:#000000;fill-opacity:1;"><g transform="translate(247.127948, 108.723284)"><path style="stroke:none" d="M 6.125 5.359375 L 6.5 1.578125 C 6.289062 1.429688 6.085938 1.273438 5.890625 1.109375 L 3.9375 -0.59375 L 1.9375 1.703125 L 1.171875 1.03125 L 7.515625 -6.203125 L 10.234375 -3.828125 C 11.160156 -3.015625 11.691406 -2.15625 11.828125 -1.25 C 11.960938 -0.351562 11.695312 0.472656 11.03125 1.234375 C 10.53125 1.796875 9.960938 2.148438 9.328125 2.296875 C 8.703125 2.441406 8.050781 2.363281 7.375 2.0625 L 6.953125 6.09375 Z M 6.453125 0.4375 C 7.171875 1.0625 7.859375 1.378906 8.515625 1.390625 C 9.171875 1.410156 9.75 1.132812 10.25 0.5625 C 10.757812 -0.0195312 10.960938 -0.632812 10.859375 -1.28125 C 10.765625 -1.925781 10.359375 -2.5625 9.640625 -3.1875 L 7.703125 -4.875 L 4.515625 -1.25 Z M 6.453125 0.4375 "/></g></g><g style="fill:#000000;fill-opacity:1;"><g transform="translate(258.544115, 119.345871)"><path style="stroke:none" d="M 6.03125 5.859375 L 5.359375 6.421875 L 1 1.203125 L 8.390625 -4.96875 L 12.625 0.109375 L 11.953125 0.671875 L 8.375 -3.625 L 5.75 -1.4375 L 8.9375 2.390625 L 8.265625 2.953125 L 5.078125 -0.875 L 2.328125 1.421875 Z M 6.03125 5.859375 "/></g></g><g style="fill:#000000;fill-opacity:1;"><g transform="translate(267.730582, 131.053287)"><path style="stroke:none" d="M 2.125 3.65625 C 1.757812 3.050781 1.503906 2.40625 1.359375 1.71875 C 1.210938 1.039062 1.203125 0.445312 1.328125 -0.0625 L 2.21875 -0.125 C 2.101562 0.34375 2.101562 0.878906 2.21875 1.484375 C 2.332031 2.097656 2.546875 2.671875 2.859375 3.203125 C 3.304688 3.941406 3.78125 4.410156 4.28125 4.609375 C 4.78125 4.804688 5.242188 4.773438 5.671875 4.515625 C 5.992188 4.316406 6.191406 4.054688 6.265625 3.734375 C 6.335938 3.421875 6.335938 3.085938 6.265625 2.734375 C 6.203125 2.390625 6.070312 1.921875 5.875 1.328125 C 5.664062 0.597656 5.519531 0.0078125 5.4375 -0.4375 C 5.351562 -0.894531 5.378906 -1.34375 5.515625 -1.78125 C 5.648438 -2.226562 5.972656 -2.609375 6.484375 -2.921875 C 6.898438 -3.171875 7.347656 -3.285156 7.828125 -3.265625 C 8.304688 -3.253906 8.785156 -3.082031 9.265625 -2.75 C 9.742188 -2.425781 10.1875 -1.929688 10.59375 -1.265625 C 10.882812 -0.796875 11.097656 -0.300781 11.234375 0.21875 C 11.378906 0.75 11.4375 1.25 11.40625 1.71875 L 10.546875 1.84375 C 10.554688 1.375 10.5 0.910156 10.375 0.453125 C 10.257812 -0.00390625 10.085938 -0.425781 9.859375 -0.8125 C 9.421875 -1.53125 8.953125 -1.984375 8.453125 -2.171875 C 7.953125 -2.367188 7.484375 -2.335938 7.046875 -2.078125 C 6.710938 -1.878906 6.503906 -1.617188 6.421875 -1.296875 C 6.347656 -0.972656 6.347656 -0.628906 6.421875 -0.265625 C 6.492188 0.0976562 6.625 0.570312 6.8125 1.15625 C 7.039062 1.851562 7.191406 2.429688 7.265625 2.890625 C 7.347656 3.359375 7.320312 3.804688 7.1875 4.234375 C 7.050781 4.671875 6.734375 5.039062 6.234375 5.34375 C 5.816406 5.601562 5.367188 5.722656 4.890625 5.703125 C 4.421875 5.679688 3.945312 5.503906 3.46875 5.171875 C 2.988281 4.835938 2.539062 4.332031 2.125 3.65625 Z M 2.125 3.65625 "/></g></g><g transform="matrix(1,0,0,1,79,217)"><g clip-path="url(#67621e366a)"><g style="fill:#000000;fill-opacity:1;"><g transform="translate(4.609006, 10.873162)"><path style="stroke:none" d="M 9.125 -2.265625 L 10.609375 1.21875 C 10.992188 2.113281 11.15625 2.984375 11.09375 3.828125 C 11.03125 4.671875 10.753906 5.421875 10.265625 6.078125 C 9.785156 6.742188 9.128906 7.253906 8.296875 7.609375 C 7.472656 7.960938 6.65625 8.082031 5.84375 7.96875 C 5.039062 7.863281 4.304688 7.546875 3.640625 7.015625 C 2.984375 6.484375 2.460938 5.769531 2.078125 4.875 L 0.59375 1.390625 Z M 2.84375 4.484375 C 3.15625 5.234375 3.582031 5.820312 4.125 6.25 C 4.664062 6.6875 5.265625 6.945312 5.921875 7.03125 C 6.578125 7.113281 7.242188 7.007812 7.921875 6.71875 C 8.597656 6.425781 9.132812 6.015625 9.53125 5.484375 C 9.925781 4.953125 10.148438 4.34375 10.203125 3.65625 C 10.253906 2.96875 10.125 2.25 9.8125 1.5 L 8.734375 -1.015625 L 1.765625 1.96875 Z M 2.84375 4.484375 "/></g></g><g style="fill:#000000;fill-opacity:1;"><g transform="translate(12.08137, 26.832388)"><path style="stroke:none" d="M 5 6.40625 L 4.28125 6.859375 L 0.796875 1.28125 L 8.671875 -3.625 L 12.046875 1.78125 L 11.328125 2.21875 L 8.484375 -2.34375 L 5.6875 -0.59375 L 8.21875 3.46875 L 7.5 3.90625 L 4.96875 -0.15625 L 2.046875 1.671875 Z M 5 6.40625 "/></g></g><g style="fill:#000000;fill-opacity:1;"><g transform="translate(20.691237, 39.714792)"><path style="stroke:none" d="M 2.5625 3.171875 C 2.113281 2.640625 1.769531 2.0625 1.53125 1.4375 C 1.289062 0.8125 1.203125 0.253906 1.265625 -0.234375 L 2.109375 -0.4375 C 2.046875 0.03125 2.113281 0.546875 2.3125 1.109375 C 2.519531 1.671875 2.816406 2.179688 3.203125 2.640625 C 3.722656 3.273438 4.234375 3.648438 4.734375 3.765625 C 5.242188 3.890625 5.6875 3.796875 6.0625 3.484375 C 6.34375 3.253906 6.492188 2.976562 6.515625 2.65625 C 6.546875 2.34375 6.5 2.019531 6.375 1.6875 C 6.257812 1.363281 6.066406 0.9375 5.796875 0.40625 C 5.484375 -0.25 5.253906 -0.789062 5.109375 -1.21875 C 4.972656 -1.644531 4.9375 -2.078125 5 -2.515625 C 5.070312 -2.960938 5.328125 -3.367188 5.765625 -3.734375 C 6.128906 -4.035156 6.535156 -4.210938 6.984375 -4.265625 C 7.441406 -4.328125 7.921875 -4.234375 8.421875 -3.984375 C 8.921875 -3.742188 9.414062 -3.332031 9.90625 -2.75 C 10.25 -2.34375 10.53125 -1.894531 10.75 -1.40625 C 10.96875 -0.925781 11.097656 -0.457031 11.140625 0 L 10.328125 0.234375 C 10.265625 -0.222656 10.140625 -0.660156 9.953125 -1.078125 C 9.773438 -1.503906 9.546875 -1.882812 9.265625 -2.21875 C 8.742188 -2.84375 8.234375 -3.207031 7.734375 -3.3125 C 7.234375 -3.425781 6.796875 -3.320312 6.421875 -3 C 6.128906 -2.757812 5.96875 -2.476562 5.9375 -2.15625 C 5.914062 -1.84375 5.96875 -1.519531 6.09375 -1.1875 C 6.21875 -0.851562 6.414062 -0.421875 6.6875 0.109375 C 6.988281 0.742188 7.210938 1.269531 7.359375 1.6875 C 7.503906 2.113281 7.539062 2.546875 7.46875 2.984375 C 7.40625 3.421875 7.15625 3.820312 6.71875 4.1875 C 6.363281 4.488281 5.957031 4.671875 5.5 4.734375 C 5.039062 4.796875 4.554688 4.695312 4.046875 4.4375 C 3.546875 4.175781 3.050781 3.753906 2.5625 3.171875 Z M 2.5625 3.171875 "/></g></g><g style="fill:#000000;fill-opacity:1;"><g transform="translate(30.516793, 50.773606)"><path style="stroke:none" d="M 7.109375 3.046875 L 3.265625 -0.40625 L 0.78125 0.703125 L 0.015625 0.015625 L 9.359375 -4.078125 L 10.09375 -3.4375 L 7.0625 6.328125 L 6.296875 5.640625 Z M 7.390625 2.21875 L 9.0625 -2.984375 L 4.0625 -0.765625 Z M 7.390625 2.21875 "/></g></g><g style="fill:#000000;fill-opacity:1;"><g transform="translate(42.889867, 61.180872)"><path style="stroke:none" d="M 6.578125 4.3125 L 6.4375 0.640625 C 6.21875 0.546875 6 0.425781 5.78125 0.28125 L 3.703125 -1.078125 L 2.09375 1.375 L 1.265625 0.828125 L 6.359375 -6.9375 L 9.265625 -5.03125 C 10.253906 -4.382812 10.875 -3.640625 11.125 -2.796875 C 11.375 -1.953125 11.226562 -1.117188 10.6875 -0.296875 C 10.289062 0.316406 9.800781 0.734375 9.21875 0.953125 C 8.632812 1.171875 8 1.179688 7.3125 0.984375 L 7.46875 4.890625 Z M 6.234375 -0.4375 C 7.003906 0.0703125 7.695312 0.285156 8.3125 0.203125 C 8.9375 0.128906 9.453125 -0.210938 9.859375 -0.828125 C 10.273438 -1.453125 10.390625 -2.066406 10.203125 -2.671875 C 10.023438 -3.273438 9.550781 -3.832031 8.78125 -4.34375 L 6.71875 -5.6875 L 4.171875 -1.78125 Z M 6.234375 -0.4375 "/></g></g><g style="fill:#000000;fill-opacity:1;"><g transform="translate(56.748024, 69.665759)"><path style="stroke:none" d="M 7.140625 3.28125 L 6.46875 -0.328125 C 6.226562 -0.398438 5.988281 -0.488281 5.75 -0.59375 L 3.484375 -1.625 L 2.265625 1.046875 L 1.375 0.625 L 5.25 -7.8125 L 8.40625 -6.359375 C 9.488281 -5.867188 10.21875 -5.226562 10.59375 -4.4375 C 10.96875 -3.644531 10.945312 -2.796875 10.53125 -1.890625 C 10.226562 -1.234375 9.804688 -0.753906 9.265625 -0.453125 C 8.722656 -0.148438 8.09375 -0.0351562 7.375 -0.109375 L 8.109375 3.71875 Z M 6.09375 -1.359375 C 6.925781 -0.984375 7.644531 -0.878906 8.25 -1.046875 C 8.863281 -1.210938 9.328125 -1.628906 9.640625 -2.296875 C 9.953125 -2.984375 9.96875 -3.609375 9.6875 -4.171875 C 9.414062 -4.742188 8.863281 -5.21875 8.03125 -5.59375 L 5.78125 -6.625 L 3.84375 -2.390625 Z M 6.09375 -1.359375 "/></g></g><g style="fill:#000000;fill-opacity:1;"><g transform="translate(71.734778, 76.023478)"><path style="stroke:none" d="M 5.359375 1.578125 C 4.460938 1.328125 3.707031 0.90625 3.09375 0.3125 C 2.488281 -0.28125 2.078125 -0.976562 1.859375 -1.78125 C 1.648438 -2.582031 1.664062 -3.414062 1.90625 -4.28125 C 2.144531 -5.144531 2.5625 -5.863281 3.15625 -6.4375 C 3.757812 -7.007812 4.472656 -7.394531 5.296875 -7.59375 C 6.128906 -7.789062 6.992188 -7.765625 7.890625 -7.515625 C 8.773438 -7.265625 9.515625 -6.84375 10.109375 -6.25 C 10.710938 -5.664062 11.117188 -4.96875 11.328125 -4.15625 C 11.546875 -3.351562 11.535156 -2.519531 11.296875 -1.65625 C 11.054688 -0.789062 10.632812 -0.0703125 10.03125 0.5 C 9.4375 1.082031 8.726562 1.46875 7.90625 1.65625 C 7.09375 1.851562 6.242188 1.828125 5.359375 1.578125 Z M 5.59375 0.734375 C 6.289062 0.929688 6.96875 0.945312 7.625 0.78125 C 8.289062 0.613281 8.863281 0.296875 9.34375 -0.171875 C 9.820312 -0.648438 10.160156 -1.234375 10.359375 -1.921875 C 10.554688 -2.617188 10.570312 -3.296875 10.40625 -3.953125 C 10.238281 -4.617188 9.910156 -5.1875 9.421875 -5.65625 C 8.941406 -6.132812 8.351562 -6.472656 7.65625 -6.671875 C 6.9375 -6.867188 6.242188 -6.890625 5.578125 -6.734375 C 4.921875 -6.578125 4.347656 -6.257812 3.859375 -5.78125 C 3.378906 -5.300781 3.039062 -4.710938 2.84375 -4.015625 C 2.644531 -3.328125 2.628906 -2.65625 2.796875 -2 C 2.972656 -1.34375 3.300781 -0.769531 3.78125 -0.28125 C 4.269531 0.195312 4.875 0.535156 5.59375 0.734375 Z M 5.59375 0.734375 "/></g></g><g style="fill:#000000;fill-opacity:1;"><g transform="translate(89.013852, 80.205402)"><path style="stroke:none" d="M 2.640625 -9.015625 L 3.625 -8.890625 L 2.59375 -0.53125 L 7.734375 0.09375 L 7.625 0.9375 L 1.5 0.1875 Z M 2.640625 -9.015625 "/></g></g><g style="fill:#000000;fill-opacity:1;"><g transform="translate(103.362412, 81.537978)"><path style="stroke:none" d="M 1.421875 -9.296875 L 2.40625 -9.3125 L 2.484375 -0.875 L 7.671875 -0.921875 L 7.6875 -0.078125 L 1.515625 -0.015625 Z M 1.421875 -9.296875 "/></g></g><g style="fill:#000000;fill-opacity:1;"><g transform="translate(117.794109, 80.982449)"><path style="stroke:none" d="M 6.875 -3.5625 L 1.75 -2.78125 L 1.03125 -0.15625 L 0.03125 0 L 2.8125 -9.8125 L 3.765625 -9.96875 L 9.375 -1.4375 L 8.359375 -1.28125 Z M 6.40625 -4.296875 L 3.453125 -8.890625 L 1.984375 -3.625 Z M 6.40625 -4.296875 "/></g></g><g style="fill:#000000;fill-opacity:1;"><g transform="translate(133.726691, 78.076904)"><path style="stroke:none" d="M -1.375 -9.296875 L 2.234375 -10.453125 C 3.171875 -10.742188 4.054688 -10.816406 4.890625 -10.671875 C 5.722656 -10.535156 6.441406 -10.191406 7.046875 -9.640625 C 7.660156 -9.097656 8.101562 -8.394531 8.375 -7.53125 C 8.644531 -6.675781 8.6875 -5.847656 8.5 -5.046875 C 8.320312 -4.253906 7.9375 -3.554688 7.34375 -2.953125 C 6.75 -2.347656 5.984375 -1.898438 5.046875 -1.609375 L 1.4375 -0.453125 Z M 4.734375 -2.390625 C 5.515625 -2.628906 6.144531 -3 6.625 -3.5 C 7.113281 -4 7.425781 -4.566406 7.5625 -5.203125 C 7.707031 -5.847656 7.671875 -6.523438 7.453125 -7.234375 C 7.222656 -7.941406 6.863281 -8.519531 6.375 -8.96875 C 5.882812 -9.414062 5.296875 -9.695312 4.609375 -9.8125 C 3.929688 -9.9375 3.203125 -9.878906 2.421875 -9.640625 L -0.1875 -8.8125 L 2.125 -1.5625 Z M 4.734375 -2.390625 "/></g></g><g style="fill:#000000;fill-opacity:1;"><g transform="translate(150.389957, 72.206521)"><path style="stroke:none" d="M 5 -2.46875 C 4.175781 -2.050781 3.335938 -1.851562 2.484375 -1.875 C 1.628906 -1.90625 0.851562 -2.140625 0.15625 -2.578125 C -0.539062 -3.023438 -1.09375 -3.648438 -1.5 -4.453125 C -1.90625 -5.242188 -2.082031 -6.050781 -2.03125 -6.875 C -1.976562 -7.707031 -1.710938 -8.472656 -1.234375 -9.171875 C -0.753906 -9.878906 -0.101562 -10.441406 0.71875 -10.859375 C 1.53125 -11.273438 2.359375 -11.472656 3.203125 -11.453125 C 4.046875 -11.429688 4.816406 -11.195312 5.515625 -10.75 C 6.222656 -10.300781 6.78125 -9.679688 7.1875 -8.890625 C 7.59375 -8.085938 7.769531 -7.269531 7.71875 -6.4375 C 7.675781 -5.601562 7.414062 -4.835938 6.9375 -4.140625 C 6.457031 -3.441406 5.8125 -2.882812 5 -2.46875 Z M 4.609375 -3.234375 C 5.253906 -3.566406 5.765625 -4.015625 6.140625 -4.578125 C 6.523438 -5.148438 6.726562 -5.773438 6.75 -6.453125 C 6.78125 -7.128906 6.632812 -7.789062 6.3125 -8.4375 C 5.976562 -9.082031 5.53125 -9.585938 4.96875 -9.953125 C 4.40625 -10.328125 3.78125 -10.523438 3.09375 -10.546875 C 2.414062 -10.578125 1.753906 -10.425781 1.109375 -10.09375 C 0.453125 -9.757812 -0.0664062 -9.304688 -0.453125 -8.734375 C -0.835938 -8.171875 -1.046875 -7.550781 -1.078125 -6.875 C -1.117188 -6.195312 -0.972656 -5.535156 -0.640625 -4.890625 C -0.316406 -4.242188 0.128906 -3.734375 0.703125 -3.359375 C 1.273438 -2.992188 1.90625 -2.796875 2.59375 -2.765625 C 3.28125 -2.742188 3.953125 -2.898438 4.609375 -3.234375 Z M 4.609375 -3.234375 "/></g></g><g style="fill:#000000;fill-opacity:1;"><g transform="translate(165.976988, 63.586135)"><path style="stroke:none" d="M 6.34375 -4.625 L 2.890625 -5.78125 C 2.703125 -5.625 2.503906 -5.46875 2.296875 -5.3125 L 0.28125 -3.84375 L 2.015625 -1.46875 L 1.21875 -0.890625 L -4.25 -8.390625 L -1.4375 -10.4375 C -0.476562 -11.132812 0.4375 -11.453125 1.3125 -11.390625 C 2.1875 -11.335938 2.914062 -10.910156 3.5 -10.109375 C 3.925781 -9.515625 4.140625 -8.910156 4.140625 -8.296875 C 4.140625 -7.679688 3.925781 -7.082031 3.5 -6.5 L 7.203125 -5.25 Z M 1.78125 -5.984375 C 2.519531 -6.523438 2.96875 -7.101562 3.125 -7.71875 C 3.28125 -8.332031 3.140625 -8.9375 2.703125 -9.53125 C 2.253906 -10.132812 1.71875 -10.453125 1.09375 -10.484375 C 0.46875 -10.523438 -0.210938 -10.273438 -0.953125 -9.734375 L -2.953125 -8.28125 L -0.21875 -4.53125 Z M 1.78125 -5.984375 "/></g></g><g style="fill:#000000;fill-opacity:1;"><g transform="translate(178.667201, 53.616922)"><path style="stroke:none" d=""/></g></g><g style="fill:#000000;fill-opacity:1;"><g transform="translate(186.0305, 46.646661)"><path style="stroke:none" d="M 1.65625 -16.9375 L 6.953125 -8.6875 L 6.296875 -7.890625 L -1.578125 -10.71875 L 2.890625 -3.625 L 2.265625 -2.828125 L -6.953125 -6.171875 L -6.3125 -6.96875 L 1.59375 -4.078125 L -2.90625 -11.234375 L -2.34375 -11.9375 L 5.625 -9.078125 L 1.0625 -16.203125 Z M 1.65625 -16.9375 "/></g></g><g style="fill:#000000;fill-opacity:1;"><g transform="translate(198.771389, 29.377033)"><path style="stroke:none" d="M 3.15625 -7.484375 L 3.890625 -7.078125 L 0.734375 -1.328125 L -7.390625 -5.796875 L -4.328125 -11.375 L -3.59375 -10.96875 L -6.1875 -6.25 L -3.296875 -4.671875 L -0.984375 -8.875 L -0.25 -8.46875 L -2.5625 -4.265625 L 0.46875 -2.59375 Z M 3.15625 -7.484375 "/></g></g><g style="fill:#000000;fill-opacity:1;"><g transform="translate(205.853615, 15.554911)"><path style="stroke:none" d="M -1.9375 -8.5625 C -1.601562 -9.09375 -1.191406 -9.441406 -0.703125 -9.609375 C -0.210938 -9.785156 0.316406 -9.765625 0.890625 -9.546875 C 1.640625 -9.265625 2.113281 -8.773438 2.3125 -8.078125 C 2.507812 -7.390625 2.40625 -6.503906 2 -5.421875 L 0.53125 -1.421875 L -8.171875 -4.640625 L -6.796875 -8.390625 C -6.429688 -9.367188 -5.953125 -10.050781 -5.359375 -10.4375 C -4.773438 -10.820312 -4.128906 -10.882812 -3.421875 -10.625 C -2.941406 -10.445312 -2.578125 -10.175781 -2.328125 -9.8125 C -2.078125 -9.457031 -1.945312 -9.039062 -1.9375 -8.5625 Z M -7.09375 -5.28125 L -3.9375 -4.109375 L -2.90625 -6.875 C -2.644531 -7.582031 -2.578125 -8.175781 -2.703125 -8.65625 C -2.828125 -9.132812 -3.148438 -9.472656 -3.671875 -9.671875 C -4.179688 -9.859375 -4.640625 -9.8125 -5.046875 -9.53125 C -5.460938 -9.25 -5.800781 -8.753906 -6.0625 -8.046875 Z M 1.234375 -5.6875 C 1.523438 -6.46875 1.613281 -7.109375 1.5 -7.609375 C 1.382812 -8.109375 1.039062 -8.460938 0.46875 -8.671875 C -0.613281 -9.066406 -1.445312 -8.472656 -2.03125 -6.890625 L -3.171875 -3.828125 L 0.09375 -2.625 Z M 1.234375 -5.6875 "/></g></g></g></g><g clip-rule="nonzero" clip-path="url(#f4ae49a46a)"><g clip-rule="nonzero" clip-path="url(#dc11dccd1c)"><g transform="matrix(1,0,0,1,96,96)"><g clip-path="url(#6b7f3d12f8)"><g clip-rule="nonzero" clip-path="url(#9bf95ea4ca)"><g clip-rule="nonzero" clip-path="url(#6b8b70d89c)"><path style=" stroke:none;fill-rule:nonzero;fill:#000000;fill-opacity:1;" d="M 0.132812 0.4375 L 182.253906 0.4375 L 182.253906 182.5625 L 0.132812 182.5625 Z M 0.132812 0.4375 "/></g></g></g></g></g></g><g clip-rule="nonzero" clip-path="url(#9fb2806c45)"><path style=" stroke:none;fill-rule:nonzero;fill:#f1f1f1;fill-opacity:1;" d="M 187.007812 98.617188 C 173.285156 98.617188 160.292969 101.734375 148.6875 107.289062 L 200.433594 114.003906 C 247.703125 121.003906 259.394531 162.761719 259.984375 164.480469 C 260.550781 166.203125 280.308594 223.6875 227.636719 242.183594 L 146.621094 266.613281 C 158.75 272.808594 172.464844 276.324219 187.007812 276.324219 C 236.074219 276.324219 275.863281 236.539062 275.863281 187.472656 C 275.863281 138.402344 236.074219 98.617188 187.007812 98.617188 "/></g><g clip-rule="nonzero" clip-path="url(#a95f02d1ae)"><path style=" stroke:none;fill-rule:nonzero;fill:#f1f1f1;fill-opacity:1;" d="M 239.378906 172.726562 C 239.152344 171.753906 232.75 146.042969 206.8125 144.085938 L 111.476562 140.675781 C 103.042969 154.269531 98.152344 170.296875 98.152344 187.472656 C 98.152344 219.332031 114.9375 247.261719 140.125 262.945312 L 127.3125 158.433594 L 170.644531 158.34375 L 179.828125 212.488281 L 219.898438 205.792969 C 220.917969 205.613281 245.546875 201.8125 239.378906 172.726562 "/></g><g style="fill:#000000;fill-opacity:1;"><g transform="translate(73.805033, 192.165808)"><path style="stroke:none" d="M 4.0625 0.21875 C 3.375 0.195312 2.757812 0.015625 2.21875 -0.328125 C 1.675781 -0.679688 1.253906 -1.1875 0.953125 -1.84375 C 0.660156 -2.5 0.523438 -3.28125 0.546875 -4.1875 C 0.554688 -5.09375 0.722656 -5.867188 1.046875 -6.515625 C 1.367188 -7.160156 1.804688 -7.648438 2.359375 -7.984375 C 2.910156 -8.328125 3.53125 -8.488281 4.21875 -8.46875 C 4.914062 -8.457031 5.535156 -8.273438 6.078125 -7.921875 C 6.617188 -7.566406 7.035156 -7.0625 7.328125 -6.40625 C 7.617188 -5.75 7.757812 -4.96875 7.75 -4.0625 C 7.726562 -3.15625 7.554688 -2.378906 7.234375 -1.734375 C 6.921875 -1.085938 6.488281 -0.597656 5.9375 -0.265625 C 5.382812 0.0664062 4.757812 0.226562 4.0625 0.21875 Z M 4.09375 -1.421875 C 4.613281 -1.410156 5.019531 -1.617188 5.3125 -2.046875 C 5.613281 -2.484375 5.773438 -3.164062 5.796875 -4.09375 C 5.804688 -5.007812 5.671875 -5.691406 5.390625 -6.140625 C 5.109375 -6.585938 4.707031 -6.816406 4.1875 -6.828125 C 3.6875 -6.835938 3.285156 -6.625 2.984375 -6.1875 C 2.679688 -5.75 2.523438 -5.070312 2.515625 -4.15625 C 2.492188 -3.226562 2.625 -2.539062 2.90625 -2.09375 C 3.195312 -1.65625 3.59375 -1.429688 4.09375 -1.421875 Z M 4.09375 -1.421875 "/></g></g><g style="fill:#000000;fill-opacity:1;"><g transform="translate(81.951761, 192.311532)"><path style="stroke:none" d="M 3.578125 -8.484375 C 4.753906 -8.460938 5.664062 -8.085938 6.3125 -7.359375 C 6.957031 -6.628906 7.269531 -5.59375 7.25 -4.25 C 7.226562 -3.300781 7.035156 -2.488281 6.671875 -1.8125 C 6.304688 -1.132812 5.796875 -0.625 5.140625 -0.28125 C 4.484375 0.0507812 3.734375 0.207031 2.890625 0.1875 C 2.441406 0.1875 2.015625 0.128906 1.609375 0.015625 C 1.203125 -0.0859375 0.859375 -0.234375 0.578125 -0.421875 L 1.3125 -1.84375 C 1.71875 -1.550781 2.242188 -1.398438 2.890625 -1.390625 C 3.597656 -1.378906 4.160156 -1.578125 4.578125 -1.984375 C 5.003906 -2.398438 5.238281 -3.003906 5.28125 -3.796875 C 4.78125 -3.296875 4.082031 -3.050781 3.1875 -3.0625 C 2.65625 -3.070312 2.171875 -3.191406 1.734375 -3.421875 C 1.296875 -3.648438 0.953125 -3.960938 0.703125 -4.359375 C 0.453125 -4.765625 0.332031 -5.226562 0.34375 -5.75 C 0.351562 -6.3125 0.5 -6.800781 0.78125 -7.21875 C 1.070312 -7.632812 1.460938 -7.953125 1.953125 -8.171875 C 2.441406 -8.390625 2.984375 -8.492188 3.578125 -8.484375 Z M 3.640625 -4.515625 C 4.066406 -4.503906 4.414062 -4.613281 4.6875 -4.84375 C 4.957031 -5.082031 5.097656 -5.382812 5.109375 -5.75 C 5.109375 -6.113281 4.976562 -6.414062 4.71875 -6.65625 C 4.46875 -6.894531 4.117188 -7.019531 3.671875 -7.03125 C 3.253906 -7.039062 2.910156 -6.9375 2.640625 -6.71875 C 2.378906 -6.5 2.25 -6.195312 2.25 -5.8125 C 2.238281 -5.425781 2.359375 -5.113281 2.609375 -4.875 C 2.867188 -4.644531 3.210938 -4.523438 3.640625 -4.515625 Z M 3.640625 -4.515625 "/></g></g><g style="fill:#000000;fill-opacity:1;"><g transform="translate(284.35665, 192.165808)"><path style="stroke:none" d="M 4.0625 0.21875 C 3.375 0.195312 2.757812 0.015625 2.21875 -0.328125 C 1.675781 -0.679688 1.253906 -1.1875 0.953125 -1.84375 C 0.660156 -2.5 0.523438 -3.28125 0.546875 -4.1875 C 0.554688 -5.09375 0.722656 -5.867188 1.046875 -6.515625 C 1.367188 -7.160156 1.804688 -7.648438 2.359375 -7.984375 C 2.910156 -8.328125 3.53125 -8.488281 4.21875 -8.46875 C 4.914062 -8.457031 5.535156 -8.273438 6.078125 -7.921875 C 6.617188 -7.566406 7.035156 -7.0625 7.328125 -6.40625 C 7.617188 -5.75 7.757812 -4.96875 7.75 -4.0625 C 7.726562 -3.15625 7.554688 -2.378906 7.234375 -1.734375 C 6.921875 -1.085938 6.488281 -0.597656 5.9375 -0.265625 C 5.382812 0.0664062 4.757812 0.226562 4.0625 0.21875 Z M 4.09375 -1.421875 C 4.613281 -1.410156 5.019531 -1.617188 5.3125 -2.046875 C 5.613281 -2.484375 5.773438 -3.164062 5.796875 -4.09375 C 5.804688 -5.007812 5.671875 -5.691406 5.390625 -6.140625 C 5.109375 -6.585938 4.707031 -6.816406 4.1875 -6.828125 C 3.6875 -6.835938 3.285156 -6.625 2.984375 -6.1875 C 2.679688 -5.75 2.523438 -5.070312 2.515625 -4.15625 C 2.492188 -3.226562 2.625 -2.539062 2.90625 -2.09375 C 3.195312 -1.65625 3.59375 -1.429688 4.09375 -1.421875 Z M 4.09375 -1.421875 "/></g></g><g style="fill:#000000;fill-opacity:1;"><g transform="translate(292.503377, 192.311532)"><path style="stroke:none" d="M 3.578125 -8.484375 C 4.753906 -8.460938 5.664062 -8.085938 6.3125 -7.359375 C 6.957031 -6.628906 7.269531 -5.59375 7.25 -4.25 C 7.226562 -3.300781 7.035156 -2.488281 6.671875 -1.8125 C 6.304688 -1.132812 5.796875 -0.625 5.140625 -0.28125 C 4.484375 0.0507812 3.734375 0.207031 2.890625 0.1875 C 2.441406 0.1875 2.015625 0.128906 1.609375 0.015625 C 1.203125 -0.0859375 0.859375 -0.234375 0.578125 -0.421875 L 1.3125 -1.84375 C 1.71875 -1.550781 2.242188 -1.398438 2.890625 -1.390625 C 3.597656 -1.378906 4.160156 -1.578125 4.578125 -1.984375 C 5.003906 -2.398438 5.238281 -3.003906 5.28125 -3.796875 C 4.78125 -3.296875 4.082031 -3.050781 3.1875 -3.0625 C 2.65625 -3.070312 2.171875 -3.191406 1.734375 -3.421875 C 1.296875 -3.648438 0.953125 -3.960938 0.703125 -4.359375 C 0.453125 -4.765625 0.332031 -5.226562 0.34375 -5.75 C 0.351562 -6.3125 0.5 -6.800781 0.78125 -7.21875 C 1.070312 -7.632812 1.460938 -7.953125 1.953125 -8.171875 C 2.441406 -8.390625 2.984375 -8.492188 3.578125 -8.484375 Z M 3.640625 -4.515625 C 4.066406 -4.503906 4.414062 -4.613281 4.6875 -4.84375 C 4.957031 -5.082031 5.097656 -5.382812 5.109375 -5.75 C 5.109375 -6.113281 4.976562 -6.414062 4.71875 -6.65625 C 4.46875 -6.894531 4.117188 -7.019531 3.671875 -7.03125 C 3.253906 -7.039062 2.910156 -6.9375 2.640625 -6.71875 C 2.378906 -6.5 2.25 -6.195312 2.25 -5.8125 C 2.238281 -5.425781 2.359375 -5.113281 2.609375 -4.875 C 2.867188 -4.644531 3.210938 -4.523438 3.640625 -4.515625 Z M 3.640625 -4.515625 "/></g></g></g></svg>