<svg xmlns="http://www.w3.org/2000/svg" xmlns:xlink="http://www.w3.org/1999/xlink" width="500" zoomAndPan="magnify" viewBox="0 0 375 374.999991" height="500" preserveAspectRatio="xMidYMid meet" version="1.2"><defs><clipPath id="27249f26ef"><path d="M 49.15625 49.15625 L 325.84375 49.15625 L 325.84375 325.84375 L 49.15625 325.84375 Z M 49.15625 49.15625 "/></clipPath><clipPath id="ad7cf87217"><path d="M 187.5 49.15625 C 111.09375 49.15625 49.15625 111.09375 49.15625 187.5 C 49.15625 263.90625 111.09375 325.84375 187.5 325.84375 C 263.90625 325.84375 325.84375 263.90625 325.84375 187.5 C 325.84375 111.09375 263.90625 49.15625 187.5 49.15625 Z M 187.5 49.15625 "/></clipPath><clipPath id="7309178978"><path d="M 0.15625 0.15625 L 276.84375 0.15625 L 276.84375 276.84375 L 0.15625 276.84375 Z M 0.15625 0.15625 "/></clipPath><clipPath id="c885d7af3c"><path d="M 138.5 0.15625 C 62.09375 0.15625 0.15625 62.09375 0.15625 138.5 C 0.15625 214.90625 62.09375 276.84375 138.5 276.84375 C 214.90625 276.84375 276.84375 214.90625 276.84375 138.5 C 276.84375 62.09375 214.90625 0.15625 138.5 0.15625 Z M 138.5 0.15625 "/></clipPath><clipPath id="1997dfe32c"><rect x="0" width="277" y="0" height="277"/></clipPath><clipPath id="79d3583802"><path d="M 64.40625 64.40625 L 310.40625 64.40625 L 310.40625 310.40625 L 64.40625 310.40625 Z M 64.40625 64.40625 "/></clipPath><clipPath id="1514335f36"><path d="M 187.496094 64.40625 C 119.515625 64.40625 64.40625 119.515625 64.40625 187.496094 C 64.40625 255.476562 119.515625 310.582031 187.496094 310.582031 C 255.476562 310.582031 310.582031 255.476562 310.582031 187.496094 C 310.582031 119.515625 255.476562 64.40625 187.496094 64.40625 Z M 187.496094 64.40625 "/></clipPath><clipPath id="9494dc9c2a"><path d="M 52.296875 52.492188 L 322.296875 52.492188 L 322.296875 322.492188 L 52.296875 322.492188 Z M 52.296875 52.492188 "/></clipPath><clipPath id="c9edfe7c0b"><path d="M 187.34375 52.492188 C 112.757812 52.492188 52.296875 112.953125 52.296875 187.539062 C 52.296875 262.121094 112.757812 322.585938 187.34375 322.585938 C 261.929688 322.585938 322.390625 262.121094 322.390625 187.539062 C 322.390625 112.953125 261.929688 52.492188 187.34375 52.492188 Z M 187.34375 52.492188 "/></clipPath><clipPath id="be57daa497"><path d="M 57.957031 187.542969 L 61.171875 187.542969 L 61.171875 190.757812 L 57.957031 190.757812 Z M 57.957031 187.542969 "/></clipPath><clipPath id="638aa72b13"><path d="M 59.566406 187.542969 C 58.675781 187.542969 57.957031 188.261719 57.957031 189.148438 C 57.957031 190.039062 58.675781 190.757812 59.566406 190.757812 C 60.453125 190.757812 61.171875 190.039062 61.171875 189.148438 C 61.171875 188.261719 60.453125 187.542969 59.566406 187.542969 Z M 59.566406 187.542969 "/></clipPath><clipPath id="b0bd5d4ef8"><path d="M 0.957031 0.542969 L 4.171875 0.542969 L 4.171875 3.757812 L 0.957031 3.757812 Z M 0.957031 0.542969 "/></clipPath><clipPath id="c5fd9e7e7f"><path d="M 2.566406 0.542969 C 1.675781 0.542969 0.957031 1.261719 0.957031 2.148438 C 0.957031 3.039062 1.675781 3.757812 2.566406 3.757812 C 3.453125 3.757812 4.171875 3.039062 4.171875 2.148438 C 4.171875 1.261719 3.453125 0.542969 2.566406 0.542969 Z M 2.566406 0.542969 "/></clipPath><clipPath id="561a5519cc"><rect x="0" width="5" y="0" height="4"/></clipPath><clipPath id="a14031eeec"><path d="M 313.59375 187.5 L 316.597656 187.5 L 316.597656 190.503906 L 313.59375 190.503906 Z M 313.59375 187.5 "/></clipPath><clipPath id="2deafb49f6"><path d="M 315.097656 187.5 C 314.265625 187.5 313.59375 188.171875 313.59375 189.003906 C 313.59375 189.832031 314.265625 190.503906 315.097656 190.503906 C 315.925781 190.503906 316.597656 189.832031 316.597656 189.003906 C 316.597656 188.171875 315.925781 187.5 315.097656 187.5 Z M 315.097656 187.5 "/></clipPath><clipPath id="6d1335f91e"><path d="M 0.59375 0.5 L 3.597656 0.5 L 3.597656 3.503906 L 0.59375 3.503906 Z M 0.59375 0.5 "/></clipPath><clipPath id="acaecff952"><path d="M 2.097656 0.5 C 1.265625 0.5 0.59375 1.171875 0.59375 2.003906 C 0.59375 2.832031 1.265625 3.503906 2.097656 3.503906 C 2.925781 3.503906 3.597656 2.832031 3.597656 2.003906 C 3.597656 1.171875 2.925781 0.5 2.097656 0.5 Z M 2.097656 0.5 "/></clipPath><clipPath id="6680d8af9d"><rect x="0" width="4" y="0" height="4"/></clipPath><clipPath id="350f494bea"><rect x="0" width="215" y="0" height="89"/></clipPath><clipPath id="d119582891"><path d="M 96.132812 96.4375 L 278.253906 96.4375 L 278.253906 279 L 96.132812 279 Z M 96.132812 96.4375 "/></clipPath><clipPath id="913cf52a2b"><path d="M 187.195312 96.4375 C 136.902344 96.4375 96.132812 137.207031 96.132812 187.5 C 96.132812 237.792969 136.902344 278.5625 187.195312 278.5625 C 237.484375 278.5625 278.253906 237.792969 278.253906 187.5 C 278.253906 137.207031 237.484375 96.4375 187.195312 96.4375 Z M 187.195312 96.4375 "/></clipPath><clipPath id="99981c3c17"><path d="M 0.132812 0.4375 L 182.253906 0.4375 L 182.253906 182.640625 L 0.132812 182.640625 Z M 0.132812 0.4375 "/></clipPath><clipPath id="f226e9574a"><path d="M 91.195312 0.4375 C 40.902344 0.4375 0.132812 41.207031 0.132812 91.5 C 0.132812 141.792969 40.902344 182.5625 91.195312 182.5625 C 141.484375 182.5625 182.253906 141.792969 182.253906 91.5 C 182.253906 41.207031 141.484375 0.4375 91.195312 0.4375 Z M 91.195312 0.4375 "/></clipPath><clipPath id="82de31e04f"><rect x="0" width="183" y="0" height="183"/></clipPath><clipPath id="7286df1123"><path d="M 146 98.617188 L 275.902344 98.617188 L 275.902344 276.367188 L 146 276.367188 Z M 146 98.617188 "/></clipPath><clipPath id="de048f141c"><path d="M 98.152344 140 L 241 140 L 241 263 L 98.152344 263 Z M 98.152344 140 "/></clipPath></defs><g id="653c54a83e"><g clip-rule="nonzero" clip-path="url(#27249f26ef)"><g clip-rule="nonzero" clip-path="url(#ad7cf87217)"><g transform="matrix(1,0,0,1,49,49)"><g clip-path="url(#1997dfe32c)"><g clip-rule="nonzero" clip-path="url(#7309178978)"><g clip-rule="nonzero" clip-path="url(#c885d7af3c)"><path style=" stroke:none;fill-rule:nonzero;fill:#100f0d;fill-opacity:1;" d="M 0.15625 0.15625 L 276.84375 0.15625 L 276.84375 276.84375 L 0.15625 276.84375 Z M 0.15625 0.15625 "/></g></g></g></g></g></g><g clip-rule="nonzero" clip-path="url(#79d3583802)"><g clip-rule="nonzero" clip-path="url(#1514335f36)"><path style="fill:none;stroke-width:6;stroke-linecap:butt;stroke-linejoin:miter;stroke:#ffffff;stroke-opacity:1;stroke-miterlimit:4;" d="M 164.118562 -0.00123436 C 73.477931 -0.00123436 -0.00124036 73.477937 -0.00124036 164.118568 C -0.00124036 254.759199 73.477931 328.233162 164.118562 328.233162 C 254.759193 328.233162 328.233156 254.759199 328.233156 164.118568 C 328.233156 73.477937 254.759193 -0.00123436 164.118562 -0.00123436 Z M 164.118562 -0.00123436 " transform="matrix(0.75,0,0,0.75,64.40718,64.407176)"/></g></g><g clip-rule="nonzero" clip-path="url(#9494dc9c2a)"><g clip-rule="nonzero" clip-path="url(#c9edfe7c0b)"><path style="fill:none;stroke-width:6;stroke-linecap:butt;stroke-linejoin:miter;stroke:#ffffff;stroke-opacity:1;stroke-miterlimit:4;" d="M 180.06253 0.000899929 C 80.614613 0.000899929 0.0000292455 80.615483 0.0000292455 180.0634 C 0.0000292455 279.506109 80.614613 360.125901 180.06253 360.125901 C 279.510446 360.125901 360.12503 279.506109 360.12503 180.0634 C 360.12503 80.615483 279.510446 0.000899929 180.06253 0.000899929 Z M 180.06253 0.000899929 " transform="matrix(0.75,0,0,0.75,52.296853,52.491513)"/></g></g><g clip-rule="nonzero" clip-path="url(#be57daa497)"><g clip-rule="nonzero" clip-path="url(#638aa72b13)"><g transform="matrix(1,0,0,1,57,187)"><g clip-path="url(#561a5519cc)"><g clip-rule="nonzero" clip-path="url(#b0bd5d4ef8)"><g clip-rule="nonzero" clip-path="url(#c5fd9e7e7f)"><path style=" stroke:none;fill-rule:nonzero;fill:#ffffff;fill-opacity:1;" d="M 0.957031 0.542969 L 4.171875 0.542969 L 4.171875 3.757812 L 0.957031 3.757812 Z M 0.957031 0.542969 "/></g></g></g></g></g></g><g clip-rule="nonzero" clip-path="url(#a14031eeec)"><g clip-rule="nonzero" clip-path="url(#2deafb49f6)"><g transform="matrix(1,0,0,1,313,187)"><g clip-path="url(#6680d8af9d)"><g clip-rule="nonzero" clip-path="url(#6d1335f91e)"><g clip-rule="nonzero" clip-path="url(#acaecff952)"><path style=" stroke:none;fill-rule:nonzero;fill:#ffffff;fill-opacity:1;" d="M 0.59375 0.5 L 3.597656 0.5 L 3.597656 3.503906 L 0.59375 3.503906 Z M 0.59375 0.5 "/></g></g></g></g></g></g><g style="fill:#ffffff;fill-opacity:1;"><g transform="translate(101.334841, 136.10177)"><path style="stroke:none" d="M -7.328125 -6.453125 L -5.234375 -9.765625 C -4.691406 -10.628906 -4.039062 -11.28125 -3.28125 -11.71875 C -2.53125 -12.15625 -1.726562 -12.363281 -0.875 -12.34375 C -0.03125 -12.332031 0.785156 -12.078125 1.578125 -11.578125 C 2.367188 -11.078125 2.957031 -10.445312 3.34375 -9.6875 C 3.738281 -8.925781 3.898438 -8.109375 3.828125 -7.234375 C 3.765625 -6.367188 3.460938 -5.503906 2.921875 -4.640625 L 0.828125 -1.328125 Z M 2.15625 -5.078125 C 2.601562 -5.785156 2.851562 -6.492188 2.90625 -7.203125 C 2.957031 -7.921875 2.820312 -8.582031 2.5 -9.1875 C 2.1875 -9.789062 1.703125 -10.300781 1.046875 -10.71875 C 0.398438 -11.125 -0.257812 -11.335938 -0.9375 -11.359375 C -1.625 -11.378906 -2.28125 -11.210938 -2.90625 -10.859375 C -3.53125 -10.503906 -4.066406 -9.972656 -4.515625 -9.265625 L -6.03125 -6.84375 L 0.640625 -2.65625 Z M 2.15625 -5.078125 "/></g></g><g style="fill:#ffffff;fill-opacity:1;"><g transform="translate(110.802676, 122.029212)"><path style="stroke:none" d="M 3.140625 -7.40625 L -0.4375 -3.390625 L 0.734375 -0.8125 L 0.015625 -0.015625 L -4.25 -9.703125 L -3.578125 -10.46875 L 6.53125 -7.34375 L 5.828125 -6.546875 Z M 2.28125 -7.65625 L -3.125 -9.359375 L -0.796875 -4.203125 Z M 2.28125 -7.65625 "/></g></g><g style="fill:#ffffff;fill-opacity:1;"><g transform="translate(121.392647, 110.743006)"><path style="stroke:none" d="M 1.453125 -13.53125 L 7.484375 -6.03125 L 6.828125 -5.5 L -2.890625 -7.6875 L 2.015625 -1.609375 L 1.21875 -0.984375 L -4.8125 -8.484375 L -4.15625 -9.015625 L 5.5625 -6.8125 L 0.671875 -12.90625 Z M 1.453125 -13.53125 "/></g></g><g style="fill:#ffffff;fill-opacity:1;"><g transform="translate(134.945573, 100.644289)"><path style="stroke:none" d="M -3.609375 -9.046875 L -2.75 -9.578125 L 2.203125 -1.328125 L 1.34375 -0.796875 Z M -3.609375 -9.046875 "/></g></g><g style="fill:#ffffff;fill-opacity:1;"><g transform="translate(143.57202, 95.709104)"><path style="stroke:none" d="M 7.328125 -4.15625 L 7.671875 -3.359375 L 1.4375 -0.625 L -2.421875 -9.4375 L 3.625 -12.09375 L 3.96875 -11.296875 L -1.15625 -9.046875 L 0.21875 -5.90625 L 4.78125 -7.90625 L 5.140625 -7.109375 L 0.578125 -5.109375 L 2.015625 -1.828125 Z M 7.328125 -4.15625 "/></g></g><g style="fill:#ffffff;fill-opacity:1;"><g transform="translate(157.389075, 90.161544)"><path style="stroke:none" d="M -1.03125 -9.6875 L -0.046875 -9.953125 L 2.25 -1.515625 L 7.453125 -2.9375 L 7.6875 -2.09375 L 1.5 -0.40625 Z M -1.03125 -9.6875 "/></g></g><g style="fill:#ffffff;fill-opacity:1;"><g transform="translate(170.92763, 86.981242)"><path style="stroke:none" d=""/></g></g><g style="fill:#ffffff;fill-opacity:1;"><g transform="translate(180.201461, 85.7434)"><path style="stroke:none" d="M 5.78125 0.03125 C 4.820312 0.03125 3.953125 -0.175781 3.171875 -0.59375 C 2.390625 -1.007812 1.78125 -1.582031 1.34375 -2.3125 C 0.90625 -3.050781 0.679688 -3.882812 0.671875 -4.8125 C 0.660156 -5.738281 0.867188 -6.570312 1.296875 -7.3125 C 1.722656 -8.0625 2.320312 -8.65625 3.09375 -9.09375 C 3.863281 -9.53125 4.726562 -9.75 5.6875 -9.75 C 6.632812 -9.757812 7.492188 -9.554688 8.265625 -9.140625 C 9.035156 -8.734375 9.644531 -8.15625 10.09375 -7.40625 C 10.539062 -6.664062 10.769531 -5.832031 10.78125 -4.90625 C 10.789062 -3.976562 10.578125 -3.140625 10.140625 -2.390625 C 9.703125 -1.648438 9.101562 -1.0625 8.34375 -0.625 C 7.582031 -0.195312 6.726562 0.0195312 5.78125 0.03125 Z M 5.78125 -0.875 C 6.539062 -0.882812 7.222656 -1.0625 7.828125 -1.40625 C 8.441406 -1.757812 8.914062 -2.242188 9.25 -2.859375 C 9.59375 -3.472656 9.757812 -4.15625 9.75 -4.90625 C 9.75 -5.65625 9.570312 -6.332031 9.21875 -6.9375 C 8.863281 -7.539062 8.378906 -8.007812 7.765625 -8.34375 C 7.148438 -8.6875 6.460938 -8.851562 5.703125 -8.84375 C 4.941406 -8.84375 4.25 -8.664062 3.625 -8.3125 C 3.007812 -7.96875 2.53125 -7.488281 2.1875 -6.875 C 1.84375 -6.257812 1.671875 -5.578125 1.671875 -4.828125 C 1.679688 -4.078125 1.863281 -3.398438 2.21875 -2.796875 C 2.582031 -2.191406 3.078125 -1.71875 3.703125 -1.375 C 4.328125 -1.039062 5.019531 -0.875 5.78125 -0.875 Z M 5.78125 -0.875 "/></g></g><g style="fill:#ffffff;fill-opacity:1;"><g transform="translate(197.367325, 86.17103)"><path style="stroke:none" d="M 2.984375 -9.28125 L 3.984375 -9.125 L 2.671875 -0.46875 L 8 0.328125 L 7.875 1.1875 L 1.546875 0.234375 Z M 2.984375 -9.28125 "/></g></g><g style="fill:#ffffff;fill-opacity:1;"><g transform="translate(211.028912, 88.70969)"><path style="stroke:none" d="M 4.078125 -8.84375 L 5.0625 -8.578125 L 2.484375 0.6875 L 1.5 0.421875 Z M 4.078125 -8.84375 "/></g></g><g style="fill:#ffffff;fill-opacity:1;"><g transform="translate(220.538772, 91.568872)"><path style="stroke:none" d="M 12.5625 -5.125 L 4.890625 2.078125 L 3.953125 1.6875 L 3.8125 -8.84375 L 4.8125 -8.40625 L 4.9375 0.71875 L 11.625 -5.515625 Z M 12.5625 -5.125 "/></g></g><g style="fill:#ffffff;fill-opacity:1;"><g transform="translate(234.393929, 97.926896)"><path style="stroke:none" d="M 7.828125 1.859375 L 3.265625 -1 L 0.921875 0.578125 L 0.03125 0.015625 L 8.859375 -5.8125 L 9.71875 -5.265625 L 8.328125 5.21875 L 7.421875 4.65625 Z M 7.921875 0.96875 L 8.71875 -4.640625 L 4.015625 -1.484375 Z M 7.921875 0.96875 "/></g></g><g style="fill:#ffffff;fill-opacity:1;"><g transform="translate(247.286091, 106.52864)"><path style="stroke:none" d="M 6.125 5.359375 L 6.5 1.578125 C 6.289062 1.429688 6.085938 1.273438 5.890625 1.109375 L 3.9375 -0.59375 L 1.9375 1.703125 L 1.171875 1.03125 L 7.515625 -6.203125 L 10.234375 -3.828125 C 11.160156 -3.015625 11.691406 -2.15625 11.828125 -1.25 C 11.960938 -0.351562 11.695312 0.472656 11.03125 1.234375 C 10.53125 1.796875 9.960938 2.148438 9.328125 2.296875 C 8.703125 2.441406 8.050781 2.363281 7.375 2.0625 L 6.953125 6.09375 Z M 6.453125 0.4375 C 7.171875 1.0625 7.859375 1.378906 8.515625 1.390625 C 9.171875 1.410156 9.75 1.132812 10.25 0.5625 C 10.757812 -0.0195312 10.960938 -0.632812 10.859375 -1.28125 C 10.765625 -1.925781 10.359375 -2.5625 9.640625 -3.1875 L 7.703125 -4.875 L 4.515625 -1.25 Z M 6.453125 0.4375 "/></g></g><g style="fill:#ffffff;fill-opacity:1;"><g transform="translate(258.702287, 117.151234)"><path style="stroke:none" d="M 6.03125 5.859375 L 5.359375 6.421875 L 1 1.203125 L 8.390625 -4.96875 L 12.625 0.109375 L 11.953125 0.671875 L 8.375 -3.625 L 5.75 -1.4375 L 8.9375 2.390625 L 8.265625 2.953125 L 5.078125 -0.875 L 2.328125 1.421875 Z M 6.03125 5.859375 "/></g></g><g style="fill:#ffffff;fill-opacity:1;"><g transform="translate(267.888728, 128.85865)"><path style="stroke:none" d="M 2.125 3.65625 C 1.757812 3.050781 1.503906 2.40625 1.359375 1.71875 C 1.210938 1.039062 1.203125 0.445312 1.328125 -0.0625 L 2.21875 -0.125 C 2.101562 0.34375 2.101562 0.878906 2.21875 1.484375 C 2.332031 2.097656 2.546875 2.671875 2.859375 3.203125 C 3.304688 3.941406 3.78125 4.410156 4.28125 4.609375 C 4.78125 4.804688 5.242188 4.773438 5.671875 4.515625 C 5.992188 4.316406 6.191406 4.054688 6.265625 3.734375 C 6.335938 3.421875 6.335938 3.085938 6.265625 2.734375 C 6.203125 2.390625 6.070312 1.921875 5.875 1.328125 C 5.664062 0.597656 5.519531 0.0078125 5.4375 -0.4375 C 5.351562 -0.894531 5.378906 -1.34375 5.515625 -1.78125 C 5.648438 -2.226562 5.972656 -2.609375 6.484375 -2.921875 C 6.898438 -3.171875 7.347656 -3.285156 7.828125 -3.265625 C 8.304688 -3.253906 8.785156 -3.082031 9.265625 -2.75 C 9.742188 -2.425781 10.1875 -1.929688 10.59375 -1.265625 C 10.882812 -0.796875 11.097656 -0.300781 11.234375 0.21875 C 11.378906 0.75 11.4375 1.25 11.40625 1.71875 L 10.546875 1.84375 C 10.554688 1.375 10.5 0.910156 10.375 0.453125 C 10.257812 -0.00390625 10.085938 -0.425781 9.859375 -0.8125 C 9.421875 -1.53125 8.953125 -1.984375 8.453125 -2.171875 C 7.953125 -2.367188 7.484375 -2.335938 7.046875 -2.078125 C 6.710938 -1.878906 6.503906 -1.617188 6.421875 -1.296875 C 6.347656 -0.972656 6.347656 -0.628906 6.421875 -0.265625 C 6.492188 0.0976562 6.625 0.570312 6.8125 1.15625 C 7.039062 1.851562 7.191406 2.429688 7.265625 2.890625 C 7.347656 3.359375 7.320312 3.804688 7.1875 4.234375 C 7.050781 4.671875 6.734375 5.039062 6.234375 5.34375 C 5.816406 5.601562 5.367188 5.722656 4.890625 5.703125 C 4.421875 5.679688 3.945312 5.503906 3.46875 5.171875 C 2.988281 4.835938 2.539062 4.332031 2.125 3.65625 Z M 2.125 3.65625 "/></g></g><g transform="matrix(1,0,0,1,79,217)"><g clip-path="url(#350f494bea)"><g style="fill:#ffffff;fill-opacity:1;"><g transform="translate(4.511984, 11.327843)"><path style="stroke:none" d="M 9.109375 -2.28125 L 10.609375 1.1875 C 10.992188 2.09375 11.15625 2.96875 11.09375 3.8125 C 11.039062 4.65625 10.773438 5.40625 10.296875 6.0625 C 9.816406 6.71875 9.160156 7.222656 8.328125 7.578125 C 7.503906 7.929688 6.6875 8.054688 5.875 7.953125 C 5.0625 7.859375 4.320312 7.546875 3.65625 7.015625 C 3 6.484375 2.476562 5.765625 2.09375 4.859375 L 0.59375 1.390625 Z M 2.859375 4.484375 C 3.179688 5.222656 3.609375 5.8125 4.140625 6.25 C 4.679688 6.6875 5.28125 6.941406 5.9375 7.015625 C 6.601562 7.097656 7.273438 6.988281 7.953125 6.6875 C 8.628906 6.394531 9.160156 5.984375 9.546875 5.453125 C 9.941406 4.929688 10.164062 4.320312 10.21875 3.625 C 10.28125 2.925781 10.148438 2.207031 9.828125 1.46875 L 8.734375 -1.046875 L 1.765625 1.96875 Z M 2.859375 4.484375 "/></g></g><g style="fill:#ffffff;fill-opacity:1;"><g transform="translate(12.029656, 27.265769)"><path style="stroke:none" d="M 5.015625 6.390625 L 4.296875 6.84375 L 0.8125 1.28125 L 8.671875 -3.65625 L 12.046875 1.734375 L 11.328125 2.1875 L 8.46875 -2.359375 L 5.6875 -0.609375 L 8.234375 3.453125 L 7.515625 3.90625 L 4.96875 -0.15625 L 2.046875 1.671875 Z M 5.015625 6.390625 "/></g></g><g style="fill:#ffffff;fill-opacity:1;"><g transform="translate(20.676096, 40.123679)"><path style="stroke:none" d="M 2.5625 3.171875 C 2.113281 2.628906 1.769531 2.046875 1.53125 1.421875 C 1.289062 0.804688 1.203125 0.253906 1.265625 -0.234375 L 2.109375 -0.4375 C 2.054688 0.03125 2.128906 0.546875 2.328125 1.109375 C 2.523438 1.671875 2.816406 2.179688 3.203125 2.640625 C 3.734375 3.265625 4.25 3.632812 4.75 3.75 C 5.257812 3.875 5.703125 3.78125 6.078125 3.46875 C 6.347656 3.226562 6.492188 2.945312 6.515625 2.625 C 6.546875 2.3125 6.5 1.992188 6.375 1.671875 C 6.257812 1.347656 6.066406 0.914062 5.796875 0.375 C 5.484375 -0.269531 5.253906 -0.800781 5.109375 -1.21875 C 4.972656 -1.644531 4.9375 -2.082031 5 -2.53125 C 5.0625 -2.976562 5.3125 -3.382812 5.75 -3.75 C 6.113281 -4.050781 6.519531 -4.226562 6.96875 -4.28125 C 7.425781 -4.34375 7.90625 -4.25 8.40625 -4 C 8.914062 -3.757812 9.414062 -3.347656 9.90625 -2.765625 C 10.25 -2.359375 10.53125 -1.910156 10.75 -1.421875 C 10.96875 -0.941406 11.097656 -0.484375 11.140625 -0.046875 L 10.328125 0.203125 C 10.265625 -0.253906 10.140625 -0.691406 9.953125 -1.109375 C 9.765625 -1.535156 9.535156 -1.910156 9.265625 -2.234375 C 8.742188 -2.859375 8.234375 -3.222656 7.734375 -3.328125 C 7.234375 -3.441406 6.789062 -3.335938 6.40625 -3.015625 C 6.113281 -2.773438 5.953125 -2.492188 5.921875 -2.171875 C 5.898438 -1.859375 5.953125 -1.535156 6.078125 -1.203125 C 6.210938 -0.867188 6.410156 -0.4375 6.671875 0.09375 C 6.984375 0.738281 7.210938 1.269531 7.359375 1.6875 C 7.503906 2.113281 7.539062 2.539062 7.46875 2.96875 C 7.40625 3.40625 7.160156 3.804688 6.734375 4.171875 C 6.378906 4.472656 5.972656 4.65625 5.515625 4.71875 C 5.054688 4.78125 4.570312 4.679688 4.0625 4.421875 C 3.550781 4.160156 3.050781 3.742188 2.5625 3.171875 Z M 2.5625 3.171875 "/></g></g><g style="fill:#ffffff;fill-opacity:1;"><g transform="translate(30.53304, 51.154491)"><path style="stroke:none" d="M 7.125 3.015625 L 3.265625 -0.421875 L 0.78125 0.703125 L 0.015625 0.015625 L 9.359375 -4.109375 L 10.078125 -3.453125 L 7.078125 6.3125 L 6.3125 5.625 Z M 7.40625 2.1875 L 9.046875 -3.015625 L 4.0625 -0.78125 Z M 7.40625 2.1875 "/></g></g><g style="fill:#ffffff;fill-opacity:1;"><g transform="translate(42.93564, 61.526593)"><path style="stroke:none" d="M 6.578125 4.296875 L 6.4375 0.625 C 6.21875 0.519531 6 0.394531 5.78125 0.25 L 3.703125 -1.109375 L 2.09375 1.359375 L 1.265625 0.828125 L 6.328125 -6.953125 L 9.234375 -5.0625 C 10.234375 -4.414062 10.859375 -3.671875 11.109375 -2.828125 C 11.367188 -1.984375 11.226562 -1.148438 10.6875 -0.328125 C 10.289062 0.285156 9.800781 0.703125 9.21875 0.921875 C 8.644531 1.140625 8.007812 1.15625 7.3125 0.96875 L 7.46875 4.875 Z M 6.21875 -0.453125 C 6.988281 0.046875 7.6875 0.253906 8.3125 0.171875 C 8.945312 0.0976562 9.460938 -0.25 9.859375 -0.875 C 10.273438 -1.5 10.390625 -2.109375 10.203125 -2.703125 C 10.015625 -3.296875 9.535156 -3.84375 8.765625 -4.34375 L 6.703125 -5.703125 L 4.15625 -1.8125 Z M 6.21875 -0.453125 "/></g></g><g style="fill:#ffffff;fill-opacity:1;"><g transform="translate(56.817838, 69.972067)"><path style="stroke:none" d="M 7.15625 3.25 L 6.453125 -0.34375 C 6.222656 -0.414062 5.988281 -0.503906 5.75 -0.609375 L 3.5 -1.640625 L 2.28125 1.03125 L 1.375 0.625 L 5.21875 -7.828125 L 8.375 -6.390625 C 9.457031 -5.898438 10.1875 -5.253906 10.5625 -4.453125 C 10.945312 -3.660156 10.9375 -2.816406 10.53125 -1.921875 C 10.226562 -1.253906 9.804688 -0.769531 9.265625 -0.46875 C 8.722656 -0.164062 8.09375 -0.0625 7.375 -0.15625 L 8.125 3.6875 Z M 6.078125 -1.375 C 6.921875 -1 7.644531 -0.894531 8.25 -1.0625 C 8.863281 -1.226562 9.320312 -1.648438 9.625 -2.328125 C 9.9375 -3.003906 9.957031 -3.628906 9.6875 -4.203125 C 9.414062 -4.773438 8.859375 -5.25 8.015625 -5.625 L 5.78125 -6.65625 L 3.84375 -2.40625 Z M 6.078125 -1.375 "/></g></g><g style="fill:#ffffff;fill-opacity:1;"><g transform="translate(71.822594, 76.287142)"><path style="stroke:none" d="M 5.359375 1.5625 C 4.460938 1.3125 3.707031 0.890625 3.09375 0.296875 C 2.488281 -0.296875 2.078125 -0.988281 1.859375 -1.78125 C 1.640625 -2.582031 1.648438 -3.414062 1.890625 -4.28125 C 2.128906 -5.144531 2.546875 -5.863281 3.140625 -6.4375 C 3.734375 -7.019531 4.441406 -7.410156 5.265625 -7.609375 C 6.097656 -7.804688 6.960938 -7.78125 7.859375 -7.53125 C 8.742188 -7.289062 9.488281 -6.875 10.09375 -6.28125 C 10.707031 -5.695312 11.117188 -5 11.328125 -4.1875 C 11.546875 -3.382812 11.535156 -2.550781 11.296875 -1.6875 C 11.054688 -0.820312 10.632812 -0.101562 10.03125 0.46875 C 9.4375 1.050781 8.726562 1.4375 7.90625 1.625 C 7.09375 1.820312 6.242188 1.800781 5.359375 1.5625 Z M 5.59375 0.71875 C 6.300781 0.914062 6.984375 0.929688 7.640625 0.765625 C 8.296875 0.597656 8.863281 0.273438 9.34375 -0.203125 C 9.820312 -0.679688 10.15625 -1.265625 10.34375 -1.953125 C 10.539062 -2.660156 10.554688 -3.34375 10.390625 -4 C 10.222656 -4.65625 9.898438 -5.21875 9.421875 -5.6875 C 8.941406 -6.15625 8.347656 -6.488281 7.640625 -6.6875 C 6.929688 -6.882812 6.242188 -6.90625 5.578125 -6.75 C 4.910156 -6.59375 4.332031 -6.273438 3.84375 -5.796875 C 3.363281 -5.328125 3.023438 -4.738281 2.828125 -4.03125 C 2.640625 -3.34375 2.628906 -2.664062 2.796875 -2 C 2.972656 -1.34375 3.304688 -0.773438 3.796875 -0.296875 C 4.285156 0.179688 4.882812 0.519531 5.59375 0.71875 Z M 5.59375 0.71875 "/></g></g><g style="fill:#ffffff;fill-opacity:1;"><g transform="translate(89.113486, 80.419975)"><path style="stroke:none" d="M 2.609375 -9.03125 L 3.59375 -8.921875 L 2.578125 -0.546875 L 7.71875 0.078125 L 7.625 0.921875 L 1.5 0.1875 Z M 2.609375 -9.03125 "/></g></g><g style="fill:#ffffff;fill-opacity:1;"><g transform="translate(103.465774, 81.711829)"><path style="stroke:none" d="M 1.390625 -9.296875 L 2.375 -9.3125 L 2.484375 -0.875 L 7.671875 -0.9375 L 7.6875 -0.09375 L 1.515625 -0.015625 Z M 1.390625 -9.296875 "/></g></g><g style="fill:#ffffff;fill-opacity:1;"><g transform="translate(117.895844, 81.115235)"><path style="stroke:none" d="M 6.859375 -3.578125 L 1.75 -2.78125 L 1.03125 -0.15625 L 0.03125 0 L 2.796875 -9.828125 L 3.75 -9.984375 L 9.375 -1.453125 L 8.359375 -1.296875 Z M 6.40625 -4.328125 L 3.421875 -8.90625 L 1.984375 -3.640625 Z M 6.40625 -4.328125 "/></g></g><g style="fill:#ffffff;fill-opacity:1;"><g transform="translate(133.820112, 78.164449)"><path style="stroke:none" d="M -1.40625 -9.3125 L 2.203125 -10.46875 C 3.128906 -10.757812 4.007812 -10.832031 4.84375 -10.6875 C 5.675781 -10.539062 6.398438 -10.195312 7.015625 -9.65625 C 7.640625 -9.125 8.085938 -8.425781 8.359375 -7.5625 C 8.628906 -6.707031 8.671875 -5.878906 8.484375 -5.078125 C 8.304688 -4.273438 7.921875 -3.570312 7.328125 -2.96875 C 6.734375 -2.363281 5.972656 -1.914062 5.046875 -1.625 L 1.4375 -0.46875 Z M 4.71875 -2.390625 C 5.488281 -2.640625 6.117188 -3.007812 6.609375 -3.5 C 7.109375 -4 7.425781 -4.570312 7.5625 -5.21875 C 7.695312 -5.875 7.648438 -6.554688 7.421875 -7.265625 C 7.191406 -7.960938 6.832031 -8.53125 6.34375 -8.96875 C 5.863281 -9.414062 5.28125 -9.695312 4.59375 -9.8125 C 3.90625 -9.9375 3.175781 -9.875 2.40625 -9.625 L -0.203125 -8.796875 L 2.109375 -1.5625 Z M 4.71875 -2.390625 "/></g></g><g style="fill:#ffffff;fill-opacity:1;"><g transform="translate(150.466632, 72.246762)"><path style="stroke:none" d="M 4.984375 -2.484375 C 4.160156 -2.066406 3.320312 -1.867188 2.46875 -1.890625 C 1.625 -1.910156 0.851562 -2.140625 0.15625 -2.578125 C -0.539062 -3.023438 -1.097656 -3.644531 -1.515625 -4.4375 C -1.921875 -5.238281 -2.097656 -6.050781 -2.046875 -6.875 C -2.003906 -7.695312 -1.742188 -8.460938 -1.265625 -9.171875 C -0.796875 -9.890625 -0.148438 -10.457031 0.671875 -10.875 C 1.492188 -11.300781 2.328125 -11.5 3.171875 -11.46875 C 4.015625 -11.4375 4.785156 -11.203125 5.484375 -10.765625 C 6.191406 -10.328125 6.75 -9.707031 7.15625 -8.90625 C 7.570312 -8.113281 7.753906 -7.296875 7.703125 -6.453125 C 7.660156 -5.617188 7.398438 -4.851562 6.921875 -4.15625 C 6.453125 -3.46875 5.804688 -2.910156 4.984375 -2.484375 Z M 4.59375 -3.25 C 5.25 -3.582031 5.757812 -4.03125 6.125 -4.59375 C 6.5 -5.164062 6.703125 -5.789062 6.734375 -6.46875 C 6.765625 -7.15625 6.613281 -7.816406 6.28125 -8.453125 C 5.945312 -9.097656 5.492188 -9.601562 4.921875 -9.96875 C 4.359375 -10.34375 3.738281 -10.539062 3.0625 -10.5625 C 2.394531 -10.582031 1.734375 -10.425781 1.078125 -10.09375 C 0.421875 -9.757812 -0.0976562 -9.304688 -0.484375 -8.734375 C -0.867188 -8.171875 -1.078125 -7.546875 -1.109375 -6.859375 C -1.140625 -6.179688 -0.988281 -5.519531 -0.65625 -4.875 C -0.320312 -4.238281 0.125 -3.734375 0.6875 -3.359375 C 1.257812 -2.992188 1.890625 -2.800781 2.578125 -2.78125 C 3.265625 -2.757812 3.9375 -2.914062 4.59375 -3.25 Z M 4.59375 -3.25 "/></g></g><g style="fill:#ffffff;fill-opacity:1;"><g transform="translate(166.029112, 63.582104)"><path style="stroke:none" d="M 6.34375 -4.640625 L 2.859375 -5.796875 C 2.679688 -5.628906 2.488281 -5.472656 2.28125 -5.328125 L 0.28125 -3.859375 L 2.015625 -1.484375 L 1.21875 -0.890625 L -4.265625 -8.375 L -1.46875 -10.4375 C -0.507812 -11.132812 0.40625 -11.453125 1.28125 -11.390625 C 2.15625 -11.335938 2.882812 -10.910156 3.46875 -10.109375 C 3.894531 -9.523438 4.109375 -8.921875 4.109375 -8.296875 C 4.117188 -7.679688 3.910156 -7.085938 3.484375 -6.515625 L 7.1875 -5.28125 Z M 1.765625 -5.984375 C 2.503906 -6.523438 2.945312 -7.101562 3.09375 -7.71875 C 3.25 -8.332031 3.109375 -8.9375 2.671875 -9.53125 C 2.222656 -10.132812 1.6875 -10.453125 1.0625 -10.484375 C 0.4375 -10.523438 -0.242188 -10.273438 -0.984375 -9.734375 L -2.96875 -8.28125 L -0.21875 -4.53125 Z M 1.765625 -5.984375 "/></g></g><g style="fill:#ffffff;fill-opacity:1;"><g transform="translate(178.690941, 53.576899)"><path style="stroke:none" d=""/></g></g><g style="fill:#ffffff;fill-opacity:1;"><g transform="translate(186.03438, 46.585751)"><path style="stroke:none" d="M 1.609375 -16.953125 L 6.921875 -8.703125 L 6.28125 -7.90625 L -1.609375 -10.703125 L 2.890625 -3.640625 L 2.25 -2.84375 L -6.96875 -6.15625 L -6.328125 -6.953125 L 1.578125 -4.078125 L -2.9375 -11.21875 L -2.375 -11.9375 L 5.609375 -9.078125 L 1.015625 -16.203125 Z M 1.609375 -16.953125 "/></g></g><g style="fill:#ffffff;fill-opacity:1;"><g transform="translate(198.726179, 29.279969)"><path style="stroke:none" d="M 3.140625 -7.5 L 3.875 -7.09375 L 0.734375 -1.328125 L -7.40625 -5.78125 L -4.359375 -11.359375 L -3.625 -10.953125 L -6.203125 -6.234375 L -3.3125 -4.65625 L -1.015625 -8.875 L -0.265625 -8.46875 L -2.5625 -4.25 L 0.46875 -2.59375 Z M 3.140625 -7.5 "/></g></g><g style="fill:#ffffff;fill-opacity:1;"><g transform="translate(205.769101, 15.437778)"><path style="stroke:none" d="M -1.953125 -8.546875 C -1.628906 -9.085938 -1.222656 -9.441406 -0.734375 -9.609375 C -0.253906 -9.785156 0.273438 -9.769531 0.859375 -9.5625 C 1.609375 -9.28125 2.082031 -8.789062 2.28125 -8.09375 C 2.476562 -7.40625 2.378906 -6.515625 1.984375 -5.421875 L 0.515625 -1.421875 L -8.203125 -4.609375 L -6.828125 -8.359375 C -6.460938 -9.335938 -5.988281 -10.023438 -5.40625 -10.421875 C -4.820312 -10.816406 -4.171875 -10.882812 -3.453125 -10.625 C -2.972656 -10.445312 -2.601562 -10.175781 -2.34375 -9.8125 C -2.09375 -9.457031 -1.960938 -9.035156 -1.953125 -8.546875 Z M -7.109375 -5.265625 L -3.9375 -4.09375 L -2.921875 -6.875 C -2.660156 -7.570312 -2.59375 -8.160156 -2.71875 -8.640625 C -2.851562 -9.128906 -3.175781 -9.472656 -3.6875 -9.671875 C -4.195312 -9.859375 -4.660156 -9.804688 -5.078125 -9.515625 C -5.492188 -9.234375 -5.832031 -8.742188 -6.09375 -8.046875 Z M 1.21875 -5.6875 C 1.5 -6.476562 1.582031 -7.117188 1.46875 -7.609375 C 1.351562 -8.109375 1.015625 -8.460938 0.453125 -8.671875 C -0.628906 -9.078125 -1.460938 -8.484375 -2.046875 -6.890625 L -3.171875 -3.828125 L 0.09375 -2.625 Z M 1.21875 -5.6875 "/></g></g></g></g><g clip-rule="nonzero" clip-path="url(#d119582891)"><g clip-rule="nonzero" clip-path="url(#913cf52a2b)"><g transform="matrix(1,0,0,1,96,96)"><g clip-path="url(#82de31e04f)"><g clip-rule="nonzero" clip-path="url(#99981c3c17)"><g clip-rule="nonzero" clip-path="url(#f226e9574a)"><path style=" stroke:none;fill-rule:nonzero;fill:#ffffff;fill-opacity:1;" d="M 0.132812 0.4375 L 182.253906 0.4375 L 182.253906 182.5625 L 0.132812 182.5625 Z M 0.132812 0.4375 "/></g></g></g></g></g></g><g clip-rule="nonzero" clip-path="url(#7286df1123)"><path style=" stroke:none;fill-rule:nonzero;fill:#100f0d;fill-opacity:1;" d="M 187.007812 98.617188 C 173.285156 98.617188 160.292969 101.734375 148.6875 107.289062 L 200.433594 114.003906 C 247.703125 121.003906 259.394531 162.761719 259.984375 164.480469 C 260.550781 166.203125 280.308594 223.6875 227.636719 242.183594 L 146.621094 266.613281 C 158.75 272.808594 172.464844 276.324219 187.007812 276.324219 C 236.074219 276.324219 275.863281 236.539062 275.863281 187.472656 C 275.863281 138.402344 236.074219 98.617188 187.007812 98.617188 "/></g><g clip-rule="nonzero" clip-path="url(#de048f141c)"><path style=" stroke:none;fill-rule:nonzero;fill:#100f0d;fill-opacity:1;" d="M 239.378906 172.726562 C 239.152344 171.753906 232.75 146.042969 206.8125 144.085938 L 111.476562 140.675781 C 103.042969 154.269531 98.152344 170.296875 98.152344 187.472656 C 98.152344 219.332031 114.9375 247.261719 140.125 262.945312 L 127.3125 158.433594 L 170.644531 158.34375 L 179.828125 212.488281 L 219.898438 205.792969 C 220.917969 205.613281 245.546875 201.8125 239.378906 172.726562 "/></g><g style="fill:#ffffff;fill-opacity:1;"><g transform="translate(74.303921, 193.668724)"><path style="stroke:none" d="M 4.0625 0.21875 C 3.375 0.195312 2.757812 0.015625 2.21875 -0.328125 C 1.675781 -0.679688 1.253906 -1.1875 0.953125 -1.84375 C 0.660156 -2.5 0.523438 -3.28125 0.546875 -4.1875 C 0.554688 -5.09375 0.722656 -5.867188 1.046875 -6.515625 C 1.367188 -7.160156 1.804688 -7.648438 2.359375 -7.984375 C 2.910156 -8.328125 3.53125 -8.488281 4.21875 -8.46875 C 4.914062 -8.457031 5.535156 -8.273438 6.078125 -7.921875 C 6.617188 -7.566406 7.035156 -7.0625 7.328125 -6.40625 C 7.617188 -5.75 7.757812 -4.96875 7.75 -4.0625 C 7.726562 -3.15625 7.554688 -2.378906 7.234375 -1.734375 C 6.921875 -1.085938 6.488281 -0.597656 5.9375 -0.265625 C 5.382812 0.0664062 4.757812 0.226562 4.0625 0.21875 Z M 4.09375 -1.421875 C 4.613281 -1.410156 5.019531 -1.617188 5.3125 -2.046875 C 5.613281 -2.484375 5.773438 -3.164062 5.796875 -4.09375 C 5.804688 -5.007812 5.671875 -5.691406 5.390625 -6.140625 C 5.109375 -6.585938 4.707031 -6.816406 4.1875 -6.828125 C 3.6875 -6.835938 3.285156 -6.625 2.984375 -6.1875 C 2.679688 -5.75 2.523438 -5.070312 2.515625 -4.15625 C 2.492188 -3.226562 2.625 -2.539062 2.90625 -2.09375 C 3.195312 -1.65625 3.59375 -1.429688 4.09375 -1.421875 Z M 4.09375 -1.421875 "/></g></g><g style="fill:#ffffff;fill-opacity:1;"><g transform="translate(82.450649, 193.814462)"><path style="stroke:none" d="M 3.578125 -8.484375 C 4.753906 -8.460938 5.664062 -8.085938 6.3125 -7.359375 C 6.957031 -6.628906 7.269531 -5.59375 7.25 -4.25 C 7.226562 -3.300781 7.035156 -2.488281 6.671875 -1.8125 C 6.304688 -1.132812 5.796875 -0.625 5.140625 -0.28125 C 4.484375 0.0507812 3.734375 0.207031 2.890625 0.1875 C 2.441406 0.1875 2.015625 0.128906 1.609375 0.015625 C 1.203125 -0.0859375 0.859375 -0.234375 0.578125 -0.421875 L 1.3125 -1.84375 C 1.71875 -1.550781 2.242188 -1.398438 2.890625 -1.390625 C 3.597656 -1.378906 4.160156 -1.578125 4.578125 -1.984375 C 5.003906 -2.398438 5.238281 -3.003906 5.28125 -3.796875 C 4.78125 -3.296875 4.082031 -3.050781 3.1875 -3.0625 C 2.65625 -3.070312 2.171875 -3.191406 1.734375 -3.421875 C 1.296875 -3.648438 0.953125 -3.960938 0.703125 -4.359375 C 0.453125 -4.765625 0.332031 -5.226562 0.34375 -5.75 C 0.351562 -6.3125 0.5 -6.800781 0.78125 -7.21875 C 1.070312 -7.632812 1.460938 -7.953125 1.953125 -8.171875 C 2.441406 -8.390625 2.984375 -8.492188 3.578125 -8.484375 Z M 3.640625 -4.515625 C 4.066406 -4.503906 4.414062 -4.613281 4.6875 -4.84375 C 4.957031 -5.082031 5.097656 -5.382812 5.109375 -5.75 C 5.109375 -6.113281 4.976562 -6.414062 4.71875 -6.65625 C 4.46875 -6.894531 4.117188 -7.019531 3.671875 -7.03125 C 3.253906 -7.039062 2.910156 -6.9375 2.640625 -6.71875 C 2.378906 -6.5 2.25 -6.195312 2.25 -5.8125 C 2.238281 -5.425781 2.359375 -5.113281 2.609375 -4.875 C 2.867188 -4.644531 3.210938 -4.523438 3.640625 -4.515625 Z M 3.640625 -4.515625 "/></g></g><g style="fill:#ffffff;fill-opacity:1;"><g transform="translate(284.327411, 193.668724)"><path style="stroke:none" d="M 4.0625 0.21875 C 3.375 0.195312 2.757812 0.015625 2.21875 -0.328125 C 1.675781 -0.679688 1.253906 -1.1875 0.953125 -1.84375 C 0.660156 -2.5 0.523438 -3.28125 0.546875 -4.1875 C 0.554688 -5.09375 0.722656 -5.867188 1.046875 -6.515625 C 1.367188 -7.160156 1.804688 -7.648438 2.359375 -7.984375 C 2.910156 -8.328125 3.53125 -8.488281 4.21875 -8.46875 C 4.914062 -8.457031 5.535156 -8.273438 6.078125 -7.921875 C 6.617188 -7.566406 7.035156 -7.0625 7.328125 -6.40625 C 7.617188 -5.75 7.757812 -4.96875 7.75 -4.0625 C 7.726562 -3.15625 7.554688 -2.378906 7.234375 -1.734375 C 6.921875 -1.085938 6.488281 -0.597656 5.9375 -0.265625 C 5.382812 0.0664062 4.757812 0.226562 4.0625 0.21875 Z M 4.09375 -1.421875 C 4.613281 -1.410156 5.019531 -1.617188 5.3125 -2.046875 C 5.613281 -2.484375 5.773438 -3.164062 5.796875 -4.09375 C 5.804688 -5.007812 5.671875 -5.691406 5.390625 -6.140625 C 5.109375 -6.585938 4.707031 -6.816406 4.1875 -6.828125 C 3.6875 -6.835938 3.285156 -6.625 2.984375 -6.1875 C 2.679688 -5.75 2.523438 -5.070312 2.515625 -4.15625 C 2.492188 -3.226562 2.625 -2.539062 2.90625 -2.09375 C 3.195312 -1.65625 3.59375 -1.429688 4.09375 -1.421875 Z M 4.09375 -1.421875 "/></g></g><g style="fill:#ffffff;fill-opacity:1;"><g transform="translate(292.474138, 193.814462)"><path style="stroke:none" d="M 3.578125 -8.484375 C 4.753906 -8.460938 5.664062 -8.085938 6.3125 -7.359375 C 6.957031 -6.628906 7.269531 -5.59375 7.25 -4.25 C 7.226562 -3.300781 7.035156 -2.488281 6.671875 -1.8125 C 6.304688 -1.132812 5.796875 -0.625 5.140625 -0.28125 C 4.484375 0.0507812 3.734375 0.207031 2.890625 0.1875 C 2.441406 0.1875 2.015625 0.128906 1.609375 0.015625 C 1.203125 -0.0859375 0.859375 -0.234375 0.578125 -0.421875 L 1.3125 -1.84375 C 1.71875 -1.550781 2.242188 -1.398438 2.890625 -1.390625 C 3.597656 -1.378906 4.160156 -1.578125 4.578125 -1.984375 C 5.003906 -2.398438 5.238281 -3.003906 5.28125 -3.796875 C 4.78125 -3.296875 4.082031 -3.050781 3.1875 -3.0625 C 2.65625 -3.070312 2.171875 -3.191406 1.734375 -3.421875 C 1.296875 -3.648438 0.953125 -3.960938 0.703125 -4.359375 C 0.453125 -4.765625 0.332031 -5.226562 0.34375 -5.75 C 0.351562 -6.3125 0.5 -6.800781 0.78125 -7.21875 C 1.070312 -7.632812 1.460938 -7.953125 1.953125 -8.171875 C 2.441406 -8.390625 2.984375 -8.492188 3.578125 -8.484375 Z M 3.640625 -4.515625 C 4.066406 -4.503906 4.414062 -4.613281 4.6875 -4.84375 C 4.957031 -5.082031 5.097656 -5.382812 5.109375 -5.75 C 5.109375 -6.113281 4.976562 -6.414062 4.71875 -6.65625 C 4.46875 -6.894531 4.117188 -7.019531 3.671875 -7.03125 C 3.253906 -7.039062 2.910156 -6.9375 2.640625 -6.71875 C 2.378906 -6.5 2.25 -6.195312 2.25 -5.8125 C 2.238281 -5.425781 2.359375 -5.113281 2.609375 -4.875 C 2.867188 -4.644531 3.210938 -4.523438 3.640625 -4.515625 Z M 3.640625 -4.515625 "/></g></g></g></svg>